<svg width="33" height="38" viewBox="0 0 33 38" fill="none" xmlns="http://www.w3.org/2000/svg">
<path d="M12.5373 32.0015C13.4608 31.8061 19.0881 31.8061 20.0116 32.0015C20.8011 32.1838 21.6549 32.6099 21.6549 33.5402C21.609 34.4258 21.0894 35.211 20.3715 35.7096C19.4407 36.4352 18.3482 36.8948 17.2062 37.0604C16.5747 37.1422 15.9541 37.1441 15.3445 37.0604C14.2007 36.8948 13.1083 36.4352 12.1793 35.7077C11.4596 35.211 10.94 34.4258 10.8941 33.5402C10.8941 32.6099 11.7478 32.1838 12.5373 32.0015ZM16.3835 0.175781C20.2263 0.175781 24.1516 1.99914 26.4833 5.02441C27.9962 6.97243 28.6902 8.91858 28.6902 11.9439V12.7309C28.6902 15.051 29.3034 16.4185 30.6529 17.9944C31.6755 19.1554 32.0023 20.6457 32.0023 22.2626C32.0023 23.8775 31.4717 25.4106 30.4087 26.6553C29.017 28.1475 27.0543 29.1001 25.0513 29.2657C22.1486 29.5132 19.244 29.7216 16.3009 29.7216C13.356 29.7216 10.4533 29.5969 7.55057 29.2657C5.54566 29.1001 3.58298 28.1475 2.19314 26.6553C1.13009 25.4106 0.597656 23.8775 0.597656 22.2626C0.597656 20.6457 0.926299 19.1554 1.94711 17.9944C3.3388 16.4185 3.91163 15.051 3.91163 12.7309V11.9439C3.91163 8.83671 4.68642 6.80498 6.2819 4.81603C8.654 1.91541 12.4563 0.175781 16.2183 0.175781H16.3835Z" fill="#5352ED"/>
</svg>
