<svg width="20" height="27" viewBox="0 0 20 27" fill="none" xmlns="http://www.w3.org/2000/svg">
<path d="M17.96 25.3334L17.96 25.3333L17.952 25.336C17.8771 25.3613 17.7664 25.3564 17.6533 25.2842L17.632 25.2706L17.6098 25.2584L9.88497 21.0304L9.52515 20.8334L9.16521 21.0301L1.42849 25.2582L1.42002 25.2628L1.41167 25.2676C1.32174 25.3198 1.24669 25.3359 1.20402 25.3359C1.02216 25.3359 0.75 25.1468 0.75 24.7549V4.94576C0.75 3.3792 1.31575 2.37717 2.16338 1.74203C3.04502 1.08141 4.32423 0.75 5.84129 0.75H13.1965C14.7196 0.75 15.9993 1.08141 16.8842 1.74264C17.7355 2.37872 18.3069 3.38246 18.3236 4.94963V24.7549C18.3236 24.8711 18.2984 24.9786 18.2573 25.0638C18.1857 25.2071 18.0762 25.2957 17.96 25.3334Z" fill="#5352ED" stroke="#5352ED" stroke-width="1.5"/>
</svg>
