<svg width="22" height="28" viewBox="0 0 22 28" fill="none" xmlns="http://www.w3.org/2000/svg">
<path d="M20.7659 27.2249L20.7659 27.2248L20.7583 27.2272C20.6195 27.2707 20.4405 27.2539 20.2792 27.1581L20.2582 27.1456L20.2365 27.1345L11.3265 22.5987L10.9865 22.4256L10.6464 22.5985L1.72266 27.1343L1.71439 27.1385L1.70623 27.1429C1.5876 27.207 1.47417 27.2349 1.38875 27.2349C1.05512 27.2349 0.75 26.9492 0.75 26.557V5.3058C0.75 3.63217 1.39829 2.54213 2.40539 1.84026C3.4525 1.11051 4.96439 0.75 6.7375 0.75H15.2212C17.0012 0.75 18.5136 1.1105 19.5645 1.84083C20.5757 2.54356 21.2309 3.63548 21.25 5.30998V26.557C21.25 26.6807 21.2213 26.7974 21.1717 26.8928C21.0857 27.0531 20.9431 27.1714 20.7659 27.2249Z" stroke="#5352ED" stroke-width="1.5"/>
</svg>
