<svg width="33" height="33" viewBox="0 0 33 33" fill="none" xmlns="http://www.w3.org/2000/svg">
<path d="M24.189 0C29.799 0 33 3.168 33 8.7945V24.2055C33 29.799 29.8155 33 24.2055 33H8.7945C3.168 33 0 29.799 0 24.2055V8.7945C0 3.168 3.168 0 8.7945 0H24.189ZM16.4835 9.0915C15.7245 9.0915 15.114 9.702 15.114 10.461V15.114H10.4445C10.0815 15.114 9.735 15.2625 9.471 15.51C9.2235 15.774 9.075 16.1189 9.075 16.4835C9.075 17.2425 9.6855 17.853 10.4445 17.8695H15.114V22.539C15.114 23.298 15.7245 23.9085 16.4835 23.9085C17.2425 23.9085 17.853 23.298 17.853 22.539V17.8695H22.539C23.298 17.853 23.9085 17.2425 23.9085 16.4835C23.9085 15.7245 23.298 15.114 22.539 15.114H17.853V10.461C17.853 9.702 17.2425 9.0915 16.4835 9.0915Z" fill="#5352ED"/>
</svg>
