<svg width="903" height="91" viewBox="0 0 903 91" fill="none" xmlns="http://www.w3.org/2000/svg">
<path d="M88.83 1.96094L98.37 42.1709L71.83 43.2909L69.32 30.0609L61.46 43.7209L33 44.9209L60.37 1.96094H88.83Z" fill="#5352ED"/>
<path d="M390.778 1.96094L393.528 29.7709L348.668 31.6509L364.148 1.96094H390.778Z" fill="#5352ED"/>
<path d="M281.399 1.9C286.919 3.17 291.679 4.99 295.689 7.36L285.259 28.46C281.909 26.34 278.209 24.74 274.159 23.68C270.109 22.62 265.959 22.09 261.699 22.09C257.699 22.09 254.589 22.66 252.379 23.8C250.169 24.95 249.069 26.3 249.069 27.85C249.069 29.41 250.069 30.63 252.069 31.53C254.079 32.43 257.369 33.42 261.949 34.48C262.919 34.71 263.859 34.94 264.779 35.18L220.569 37.03C220.259 35.55 220.109 33.96 220.109 32.27C220.109 25.81 221.849 20.14 225.329 15.28C228.799 10.41 233.809 6.65 240.359 3.99C246.899 1.33 254.629 0 263.549 0C269.929 0.01 275.879 0.63 281.399 1.9Z" fill="#5352ED"/>
<path d="M187.481 1.96094H215.701L208.581 37.5409L180.141 38.7309L187.481 1.96094Z" fill="#5352ED"/>
<path d="M421.571 1.96094H450.041L436.521 27.9609L407.391 29.1809L421.571 1.96094Z" fill="#5352ED"/>
<path d="M456.42 1.96094H526.22L521.81 23.8109H480.47L480.01 26.1309L451.34 27.3409L456.42 1.96094Z" fill="#5352ED"/>
<g filter="url(#filter0_i)">
<path d="M709.069 16.5078L628.199 19.9078C632.419 14.3678 637.759 9.90781 644.199 6.50781C652.419 2.17781 661.719 0.0078125 672.109 0.0078125C680.859 0.0078125 688.529 1.62781 695.119 4.85781C700.959 7.71781 705.619 11.5978 709.069 16.5078Z" fill="#5352ED"/>
</g>
<path d="M154.841 1.96094L177.581 38.8409L123.211 41.1309L131.041 1.96094H154.841Z" fill="#5352ED"/>
<path d="M333.11 1.96094L336.51 32.1609L308.29 33.3509L304.52 1.96094H333.11Z" fill="#5352ED"/>
<path d="M611.759 20.5909L534.609 23.8409L538.989 1.96094H577.519C588.799 1.96094 597.579 4.44094 603.829 9.39094C607.629 12.3909 610.279 16.1309 611.759 20.5909Z" fill="#5352ED"/>
<g filter="url(#filter1_i)">
<path d="M788.898 1.96094H817.378L815.368 12.0409H815.348L786.648 13.2509L788.898 1.96094Z" fill="#5352ED"/>
</g>
<g filter="url(#filter2_i)">
<path d="M902.148 1.96094L900.838 8.45094L820.898 11.8109L822.888 1.96094H902.148Z" fill="#5352ED"/>
</g>
<g filter="url(#filter3_i)">
<path d="M733.699 1.96094H762.649L760.189 14.3609L730.969 15.5809L733.699 1.96094Z" fill="#5352ED"/>
</g>
<g filter="url(#filter4_i)">
<path d="M607.12 20.4531L529.97 23.7031L522.84 59.3531L596.67 56.2531C598.9 54.4031 600.84 52.3131 602.51 49.9831C606.56 44.3031 608.58 37.6531 608.58 30.0431C608.58 26.5331 608.1 23.3431 607.12 20.4531ZM575.94 41.2731C573.73 43.2731 570.63 44.2831 566.62 44.2831H554.72L558.77 24.1531H568.46C575.66 24.1531 579.26 27.0631 579.26 32.8631C579.26 36.4631 578.15 39.2731 575.94 41.2731Z" fill="#5352ED"/>
</g>
<g filter="url(#filter5_dii)">
<path d="M707.33 17.9C706.93 17.25 706.51 16.62 706.07 16L625.2 19.4H625.19C624.02 20.92 622.94 22.53 621.94 24.22C617.31 32.04 615 40.93 615 50.91C615 52.37 615.07 53.79 615.2 55.18L644.71 53.94C644.37 52.47 644.2 50.89 644.2 49.19C644.2 44.45 645.1 40.07 646.9 36.06C648.7 32.06 651.3 28.87 654.7 26.49C658.09 24.12 662.08 22.93 666.66 22.93C671.89 22.93 676 24.45 678.99 27.47C681.97 30.5 683.47 34.55 683.47 39.62C683.47 44.24 682.62 48.5 680.92 52.41L711.16 51.14C712.17 46.96 712.67 42.55 712.67 37.9C712.67 30.38 710.89 23.71 707.33 17.9Z" fill="#5352ED"/>
</g>
<g filter="url(#filter6_i)">
<path d="M92.7288 42L66.1888 43.12L67.8487 51.85H51.0487L55.8187 43.55L27.3587 44.75L4.21875 81.07L35.0887 79.78L39.1387 72.71H71.8988L72.9388 78.19L101.029 77L92.7288 42Z" fill="#5352ED"/>
</g>
<g filter="url(#filter7_i)">
<path d="M174.5 38.5884L173.86 41.8184L171.94 38.6984L117.57 40.9884L110.43 76.6384L138.89 75.4384L144.42 47.7084L160.95 74.5184L195.81 73.0484L202.94 37.3984L174.5 38.5884Z" fill="#5352ED"/>
</g>
<g filter="url(#filter8_i)">
<path d="M280.241 45.3791C277.451 42.2691 274.161 39.9791 270.361 38.5091C267.221 37.2991 263.481 36.1391 259.151 35.0391H259.141L214.931 36.8891C215.551 39.9091 216.811 42.4691 218.711 44.5791C221.531 47.7291 224.821 50.0591 228.581 51.5791C232.341 53.0891 237.091 54.5791 242.811 56.0491C247.151 57.1191 250.321 58.0991 252.321 58.9991C254.331 59.8991 255.331 61.0791 255.331 62.5591C255.331 64.1091 254.351 65.3391 252.381 66.2391C250.421 67.1391 247.601 67.5891 243.921 67.5891C233.861 67.5891 224.211 64.9291 214.961 59.6091L208.211 72.5291L282.031 69.4291C283.621 65.8491 284.411 61.9291 284.411 57.6491C284.411 52.5791 283.021 48.4891 280.241 45.3791Z" fill="#5352ED"/>
</g>
<g filter="url(#filter9_i)">
<path d="M401.748 29.0403L390.048 51.5103L387.888 29.6303L343.028 31.5103L332.988 50.7803L330.878 32.0203H330.868L302.648 33.2103L306.868 68.3803L351.258 66.5203L363.788 42.4403L366.328 65.8803L412.088 63.9603L430.878 27.8203L401.748 29.0403Z" fill="#5352ED"/>
</g>
<g filter="url(#filter10_i)">
<path d="M472.86 33.7222L474.37 25.9922L445.7 27.2022L438.57 62.8522L467.19 61.6522L468.57 54.5822H505.01L509.18 33.7222H472.86Z" fill="#5352ED"/>
</g>
<g filter="url(#filter11_dii)">
<path d="M782.66 12.7938L775.59 48.2637C775.58 48.3237 775.56 48.3937 775.55 48.4538L804.24 47.2438L811.36 11.5938L782.66 12.7938ZM720.26 48.7538C720.13 49.4438 720.01 50.1237 719.91 50.7837L749.08 49.5638C749.15 49.1438 749.24 48.7037 749.33 48.2637L756.19 13.9137L726.98 15.1338L720.26 48.7538Z" fill="#5352ED"/>
</g>
<g filter="url(#filter12_dii)">
<path d="M816.909 11.35L814.359 23.97H839.509L835.139 45.94L864.339 44.71L868.469 23.97H893.619L896.849 8L816.909 11.35Z" fill="#5352ED"/>
</g>
<g filter="url(#filter13_d)">
<path d="M214.199 71.5102L288.019 68.4102C287.249 70.1702 286.279 71.8402 285.119 73.4402C281.599 78.2602 276.569 82.0102 270.029 84.6602C263.489 87.3202 255.799 88.6502 246.959 88.6502C239.519 88.6502 232.529 87.8502 225.979 86.2602C219.439 84.6602 214.039 82.5602 209.789 79.9402L214.199 71.5102Z" fill="#5352ED"/>
</g>
<g filter="url(#filter14_d)">
<path d="M10.21 80.0791L41.08 78.7891L36.55 86.6891H6L10.21 80.0791Z" fill="#5352ED"/>
</g>
<g filter="url(#filter15_d)">
<path d="M312.859 67.3639L357.249 65.5039L346.219 86.6939H315.179L312.859 67.3639Z" fill="#5352ED"/>
</g>
<g filter="url(#filter16_d)">
<path d="M107.016 76.0117L109.546 86.6917H80.7158L78.9258 77.2017L107.016 76.0117Z" fill="#5352ED"/>
</g>
<g filter="url(#filter17_i)">
<path d="M684.263 51.7505L714.503 50.4805C713.363 55.2705 711.553 59.7605 709.083 63.9305C704.453 71.7405 698.033 77.8105 689.813 82.1505C681.593 86.4905 672.293 88.6505 661.903 88.6505C653.153 88.6505 645.483 87.0405 638.903 83.8105C632.313 80.5805 627.243 76.0605 623.683 70.2505C620.813 65.5605 619.093 60.3205 618.543 54.5205L648.053 53.2805C648.713 56.2005 650.043 58.6705 652.023 60.6805C655.013 63.7005 659.123 65.2205 664.353 65.2205C668.933 65.2205 672.923 64.0305 676.323 61.6605C679.713 59.2905 682.313 56.1005 684.113 52.0905C684.173 51.9805 684.223 51.8605 684.263 51.7505Z" fill="#5352ED"/>
</g>
<g filter="url(#filter18_d)">
<path d="M372.32 64.8614L418.08 62.9414L405.73 86.6914H374.69L372.32 64.8614Z" fill="#5352ED"/>
</g>
<g filter="url(#filter19_d)">
<path d="M472.35 64.8528H515.42L511 86.6928H439.59L444.56 61.8328L473.18 60.6328L472.35 64.8528Z" fill="#5352ED"/>
</g>
<g filter="url(#filter20_d)">
<path d="M166.941 73.5013L201.801 72.0312L198.871 86.6913H175.071L166.941 73.5013Z" fill="#5352ED"/>
</g>
<g filter="url(#filter21_d)">
<path d="M116.417 75.6219L144.877 74.4219L142.427 86.6919H114.207L116.417 75.6219Z" fill="#5352ED"/>
</g>
<g filter="url(#filter22_d)">
<path d="M590.38 61.6605L604.74 86.6905H574.68L562.53 65.0905H555.41L551.12 86.6905H522.16L527.83 58.3305L601.66 55.2305C598.48 57.8805 594.72 60.0205 590.38 61.6605Z" fill="#5352ED"/>
</g>
<g filter="url(#filter23_i)">
<path d="M779.889 47.7412L808.579 46.5312L808.029 49.2712C805.409 62.2712 800.169 72.0913 792.319 78.7113C784.469 85.3413 773.999 88.6513 760.909 88.6513C753.219 88.6513 746.579 87.3613 740.979 84.7913C735.369 82.2113 731.079 78.5512 728.089 73.8112C725.109 69.0612 723.609 63.5013 723.609 57.1213C723.609 55.0313 723.819 52.6813 724.249 50.0713L753.419 48.8512C753.099 50.6412 752.939 52.2912 752.939 53.8112C752.939 57.6512 753.919 60.5113 755.879 62.4013C757.849 64.2813 760.709 65.2213 764.469 65.2213C768.719 65.2213 772.039 63.8713 774.409 61.1712C776.759 58.5012 778.589 54.0212 779.889 47.7412Z" fill="#5352ED"/>
</g>
<g filter="url(#filter24_i)">
<path d="M868.677 44L860.167 86.69H831.227L839.487 45.23L868.677 44Z" fill="#5352ED"/>
</g>
<defs>
<filter id="filter0_i" x="628.199" y="-3.99219" width="80.8701" height="23.9" filterUnits="userSpaceOnUse" color-interpolation-filters="sRGB">
<feFlood flood-opacity="0" result="BackgroundImageFix"/>
<feBlend mode="normal" in="SourceGraphic" in2="BackgroundImageFix" result="shape"/>
<feColorMatrix in="SourceAlpha" type="matrix" values="0 0 0 0 0 0 0 0 0 0 0 0 0 0 0 0 0 0 127 0" result="hardAlpha"/>
<feOffset dy="-4"/>
<feGaussianBlur stdDeviation="2"/>
<feComposite in2="hardAlpha" operator="arithmetic" k2="-1" k3="1"/>
<feColorMatrix type="matrix" values="0 0 0 0 0 0 0 0 0 0 0 0 0 0 0 0 0 0 0.25 0"/>
<feBlend mode="normal" in2="shape" result="effect1_innerShadow"/>
</filter>
<filter id="filter1_i" x="786.648" y="-2.03906" width="30.73" height="15.29" filterUnits="userSpaceOnUse" color-interpolation-filters="sRGB">
<feFlood flood-opacity="0" result="BackgroundImageFix"/>
<feBlend mode="normal" in="SourceGraphic" in2="BackgroundImageFix" result="shape"/>
<feColorMatrix in="SourceAlpha" type="matrix" values="0 0 0 0 0 0 0 0 0 0 0 0 0 0 0 0 0 0 127 0" result="hardAlpha"/>
<feOffset dy="-4"/>
<feGaussianBlur stdDeviation="2"/>
<feComposite in2="hardAlpha" operator="arithmetic" k2="-1" k3="1"/>
<feColorMatrix type="matrix" values="0 0 0 0 0 0 0 0 0 0 0 0 0 0 0 0 0 0 0.25 0"/>
<feBlend mode="normal" in2="shape" result="effect1_innerShadow"/>
</filter>
<filter id="filter2_i" x="820.898" y="-2.03906" width="81.25" height="13.85" filterUnits="userSpaceOnUse" color-interpolation-filters="sRGB">
<feFlood flood-opacity="0" result="BackgroundImageFix"/>
<feBlend mode="normal" in="SourceGraphic" in2="BackgroundImageFix" result="shape"/>
<feColorMatrix in="SourceAlpha" type="matrix" values="0 0 0 0 0 0 0 0 0 0 0 0 0 0 0 0 0 0 127 0" result="hardAlpha"/>
<feOffset dy="-4"/>
<feGaussianBlur stdDeviation="2"/>
<feComposite in2="hardAlpha" operator="arithmetic" k2="-1" k3="1"/>
<feColorMatrix type="matrix" values="0 0 0 0 0 0 0 0 0 0 0 0 0 0 0 0 0 0 0.25 0"/>
<feBlend mode="normal" in2="shape" result="effect1_innerShadow"/>
</filter>
<filter id="filter3_i" x="730.969" y="-2.03906" width="31.68" height="17.62" filterUnits="userSpaceOnUse" color-interpolation-filters="sRGB">
<feFlood flood-opacity="0" result="BackgroundImageFix"/>
<feBlend mode="normal" in="SourceGraphic" in2="BackgroundImageFix" result="shape"/>
<feColorMatrix in="SourceAlpha" type="matrix" values="0 0 0 0 0 0 0 0 0 0 0 0 0 0 0 0 0 0 127 0" result="hardAlpha"/>
<feOffset dy="-4"/>
<feGaussianBlur stdDeviation="2"/>
<feComposite in2="hardAlpha" operator="arithmetic" k2="-1" k3="1"/>
<feColorMatrix type="matrix" values="0 0 0 0 0 0 0 0 0 0 0 0 0 0 0 0 0 0 0.25 0"/>
<feBlend mode="normal" in2="shape" result="effect1_innerShadow"/>
</filter>
<filter id="filter4_i" x="522.84" y="20.4531" width="85.74" height="42.9" filterUnits="userSpaceOnUse" color-interpolation-filters="sRGB">
<feFlood flood-opacity="0" result="BackgroundImageFix"/>
<feBlend mode="normal" in="SourceGraphic" in2="BackgroundImageFix" result="shape"/>
<feColorMatrix in="SourceAlpha" type="matrix" values="0 0 0 0 0 0 0 0 0 0 0 0 0 0 0 0 0 0 127 0" result="hardAlpha"/>
<feOffset dy="4"/>
<feGaussianBlur stdDeviation="2"/>
<feComposite in2="hardAlpha" operator="arithmetic" k2="-1" k3="1"/>
<feColorMatrix type="matrix" values="0 0 0 0 0 0 0 0 0 0 0 0 0 0 0 0 0 0 0.25 0"/>
<feBlend mode="normal" in2="shape" result="effect1_innerShadow"/>
</filter>
<filter id="filter5_dii" x="611" y="12" width="105.67" height="51.18" filterUnits="userSpaceOnUse" color-interpolation-filters="sRGB">
<feFlood flood-opacity="0" result="BackgroundImageFix"/>
<feColorMatrix in="SourceAlpha" type="matrix" values="0 0 0 0 0 0 0 0 0 0 0 0 0 0 0 0 0 0 127 0"/>
<feOffset dy="4"/>
<feGaussianBlur stdDeviation="2"/>
<feColorMatrix type="matrix" values="0 0 0 0 0 0 0 0 0 0 0 0 0 0 0 0 0 0 0.25 0"/>
<feBlend mode="normal" in2="BackgroundImageFix" result="effect1_dropShadow"/>
<feBlend mode="normal" in="SourceGraphic" in2="effect1_dropShadow" result="shape"/>
<feColorMatrix in="SourceAlpha" type="matrix" values="0 0 0 0 0 0 0 0 0 0 0 0 0 0 0 0 0 0 127 0" result="hardAlpha"/>
<feOffset dy="4"/>
<feGaussianBlur stdDeviation="2"/>
<feComposite in2="hardAlpha" operator="arithmetic" k2="-1" k3="1"/>
<feColorMatrix type="matrix" values="0 0 0 0 0.498039 0 0 0 0 0.494118 0 0 0 0 0.964706 0 0 0 0.15 0"/>
<feBlend mode="normal" in2="shape" result="effect2_innerShadow"/>
<feColorMatrix in="SourceAlpha" type="matrix" values="0 0 0 0 0 0 0 0 0 0 0 0 0 0 0 0 0 0 127 0" result="hardAlpha"/>
<feOffset dy="-4"/>
<feGaussianBlur stdDeviation="2"/>
<feComposite in2="hardAlpha" operator="arithmetic" k2="-1" k3="1"/>
<feColorMatrix type="matrix" values="0 0 0 0 0.498457 0 0 0 0 0.495417 0 0 0 0 0.966667 0 0 0 0.15 0"/>
<feBlend mode="normal" in2="effect2_innerShadow" result="effect3_innerShadow"/>
</filter>
<filter id="filter6_i" x="4.21875" y="42" width="96.81" height="43.07" filterUnits="userSpaceOnUse" color-interpolation-filters="sRGB">
<feFlood flood-opacity="0" result="BackgroundImageFix"/>
<feBlend mode="normal" in="SourceGraphic" in2="BackgroundImageFix" result="shape"/>
<feColorMatrix in="SourceAlpha" type="matrix" values="0 0 0 0 0 0 0 0 0 0 0 0 0 0 0 0 0 0 127 0" result="hardAlpha"/>
<feOffset dy="4"/>
<feGaussianBlur stdDeviation="2"/>
<feComposite in2="hardAlpha" operator="arithmetic" k2="-1" k3="1"/>
<feColorMatrix type="matrix" values="0 0 0 0 0 0 0 0 0 0 0 0 0 0 0 0 0 0 0.25 0"/>
<feBlend mode="normal" in2="shape" result="effect1_innerShadow"/>
</filter>
<filter id="filter7_i" x="110.43" y="37.3984" width="92.51" height="43.24" filterUnits="userSpaceOnUse" color-interpolation-filters="sRGB">
<feFlood flood-opacity="0" result="BackgroundImageFix"/>
<feBlend mode="normal" in="SourceGraphic" in2="BackgroundImageFix" result="shape"/>
<feColorMatrix in="SourceAlpha" type="matrix" values="0 0 0 0 0 0 0 0 0 0 0 0 0 0 0 0 0 0 127 0" result="hardAlpha"/>
<feOffset dy="4"/>
<feGaussianBlur stdDeviation="2"/>
<feComposite in2="hardAlpha" operator="arithmetic" k2="-1" k3="1"/>
<feColorMatrix type="matrix" values="0 0 0 0 0 0 0 0 0 0 0 0 0 0 0 0 0 0 0.25 0"/>
<feBlend mode="normal" in2="shape" result="effect1_innerShadow"/>
</filter>
<filter id="filter8_i" x="208.211" y="35.0391" width="76.2" height="41.49" filterUnits="userSpaceOnUse" color-interpolation-filters="sRGB">
<feFlood flood-opacity="0" result="BackgroundImageFix"/>
<feBlend mode="normal" in="SourceGraphic" in2="BackgroundImageFix" result="shape"/>
<feColorMatrix in="SourceAlpha" type="matrix" values="0 0 0 0 0 0 0 0 0 0 0 0 0 0 0 0 0 0 127 0" result="hardAlpha"/>
<feOffset dy="4"/>
<feGaussianBlur stdDeviation="2"/>
<feComposite in2="hardAlpha" operator="arithmetic" k2="-1" k3="1"/>
<feColorMatrix type="matrix" values="0 0 0 0 0 0 0 0 0 0 0 0 0 0 0 0 0 0 0.25 0"/>
<feBlend mode="normal" in2="shape" result="effect1_innerShadow"/>
</filter>
<filter id="filter9_i" x="302.648" y="27.8203" width="128.23" height="44.56" filterUnits="userSpaceOnUse" color-interpolation-filters="sRGB">
<feFlood flood-opacity="0" result="BackgroundImageFix"/>
<feBlend mode="normal" in="SourceGraphic" in2="BackgroundImageFix" result="shape"/>
<feColorMatrix in="SourceAlpha" type="matrix" values="0 0 0 0 0 0 0 0 0 0 0 0 0 0 0 0 0 0 127 0" result="hardAlpha"/>
<feOffset dy="4"/>
<feGaussianBlur stdDeviation="2"/>
<feComposite in2="hardAlpha" operator="arithmetic" k2="-1" k3="1"/>
<feColorMatrix type="matrix" values="0 0 0 0 0 0 0 0 0 0 0 0 0 0 0 0 0 0 0.25 0"/>
<feBlend mode="normal" in2="shape" result="effect1_innerShadow"/>
</filter>
<filter id="filter10_i" x="438.57" y="25.9922" width="70.61" height="40.86" filterUnits="userSpaceOnUse" color-interpolation-filters="sRGB">
<feFlood flood-opacity="0" result="BackgroundImageFix"/>
<feBlend mode="normal" in="SourceGraphic" in2="BackgroundImageFix" result="shape"/>
<feColorMatrix in="SourceAlpha" type="matrix" values="0 0 0 0 0 0 0 0 0 0 0 0 0 0 0 0 0 0 127 0" result="hardAlpha"/>
<feOffset dy="4"/>
<feGaussianBlur stdDeviation="2"/>
<feComposite in2="hardAlpha" operator="arithmetic" k2="-1" k3="1"/>
<feColorMatrix type="matrix" values="0 0 0 0 0 0 0 0 0 0 0 0 0 0 0 0 0 0 0.25 0"/>
<feBlend mode="normal" in2="shape" result="effect1_innerShadow"/>
</filter>
<filter id="filter11_dii" x="715.91" y="7.59375" width="99.45" height="51.19" filterUnits="userSpaceOnUse" color-interpolation-filters="sRGB">
<feFlood flood-opacity="0" result="BackgroundImageFix"/>
<feColorMatrix in="SourceAlpha" type="matrix" values="0 0 0 0 0 0 0 0 0 0 0 0 0 0 0 0 0 0 127 0"/>
<feOffset dy="4"/>
<feGaussianBlur stdDeviation="2"/>
<feColorMatrix type="matrix" values="0 0 0 0 0 0 0 0 0 0 0 0 0 0 0 0 0 0 0.25 0"/>
<feBlend mode="normal" in2="BackgroundImageFix" result="effect1_dropShadow"/>
<feBlend mode="normal" in="SourceGraphic" in2="effect1_dropShadow" result="shape"/>
<feColorMatrix in="SourceAlpha" type="matrix" values="0 0 0 0 0 0 0 0 0 0 0 0 0 0 0 0 0 0 127 0" result="hardAlpha"/>
<feOffset dy="4"/>
<feGaussianBlur stdDeviation="2"/>
<feComposite in2="hardAlpha" operator="arithmetic" k2="-1" k3="1"/>
<feColorMatrix type="matrix" values="0 0 0 0 0.498039 0 0 0 0 0.494118 0 0 0 0 0.964706 0 0 0 0.15 0"/>
<feBlend mode="normal" in2="shape" result="effect2_innerShadow"/>
<feColorMatrix in="SourceAlpha" type="matrix" values="0 0 0 0 0 0 0 0 0 0 0 0 0 0 0 0 0 0 127 0" result="hardAlpha"/>
<feOffset dy="-4"/>
<feGaussianBlur stdDeviation="2"/>
<feComposite in2="hardAlpha" operator="arithmetic" k2="-1" k3="1"/>
<feColorMatrix type="matrix" values="0 0 0 0 0.498457 0 0 0 0 0.495417 0 0 0 0 0.966667 0 0 0 0.15 0"/>
<feBlend mode="normal" in2="effect2_innerShadow" result="effect3_innerShadow"/>
</filter>
<filter id="filter12_dii" x="810.359" y="4" width="90.4901" height="49.94" filterUnits="userSpaceOnUse" color-interpolation-filters="sRGB">
<feFlood flood-opacity="0" result="BackgroundImageFix"/>
<feColorMatrix in="SourceAlpha" type="matrix" values="0 0 0 0 0 0 0 0 0 0 0 0 0 0 0 0 0 0 127 0"/>
<feOffset dy="4"/>
<feGaussianBlur stdDeviation="2"/>
<feColorMatrix type="matrix" values="0 0 0 0 0 0 0 0 0 0 0 0 0 0 0 0 0 0 0.25 0"/>
<feBlend mode="normal" in2="BackgroundImageFix" result="effect1_dropShadow"/>
<feBlend mode="normal" in="SourceGraphic" in2="effect1_dropShadow" result="shape"/>
<feColorMatrix in="SourceAlpha" type="matrix" values="0 0 0 0 0 0 0 0 0 0 0 0 0 0 0 0 0 0 127 0" result="hardAlpha"/>
<feOffset dy="4"/>
<feGaussianBlur stdDeviation="2"/>
<feComposite in2="hardAlpha" operator="arithmetic" k2="-1" k3="1"/>
<feColorMatrix type="matrix" values="0 0 0 0 0.498039 0 0 0 0 0.494118 0 0 0 0 0.964706 0 0 0 0.15 0"/>
<feBlend mode="normal" in2="shape" result="effect2_innerShadow"/>
<feColorMatrix in="SourceAlpha" type="matrix" values="0 0 0 0 0 0 0 0 0 0 0 0 0 0 0 0 0 0 127 0" result="hardAlpha"/>
<feOffset dy="-4"/>
<feGaussianBlur stdDeviation="2"/>
<feComposite in2="hardAlpha" operator="arithmetic" k2="-1" k3="1"/>
<feColorMatrix type="matrix" values="0 0 0 0 0.498457 0 0 0 0 0.495417 0 0 0 0 0.966667 0 0 0 0.15 0"/>
<feBlend mode="normal" in2="effect2_innerShadow" result="effect3_innerShadow"/>
</filter>
<filter id="filter13_d" x="203.789" y="62.4102" width="86.23" height="28.24" filterUnits="userSpaceOnUse" color-interpolation-filters="sRGB">
<feFlood flood-opacity="0" result="BackgroundImageFix"/>
<feColorMatrix in="SourceAlpha" type="matrix" values="0 0 0 0 0 0 0 0 0 0 0 0 0 0 0 0 0 0 127 0"/>
<feOffset dx="-2" dy="-2"/>
<feGaussianBlur stdDeviation="2"/>
<feColorMatrix type="matrix" values="0 0 0 0 0 0 0 0 0 0 0 0 0 0 0 0 0 0 0.25 0"/>
<feBlend mode="normal" in2="BackgroundImageFix" result="effect1_dropShadow"/>
<feBlend mode="normal" in="SourceGraphic" in2="effect1_dropShadow" result="shape"/>
</filter>
<filter id="filter14_d" x="0" y="72.7891" width="43.08" height="15.9" filterUnits="userSpaceOnUse" color-interpolation-filters="sRGB">
<feFlood flood-opacity="0" result="BackgroundImageFix"/>
<feColorMatrix in="SourceAlpha" type="matrix" values="0 0 0 0 0 0 0 0 0 0 0 0 0 0 0 0 0 0 127 0"/>
<feOffset dx="-2" dy="-2"/>
<feGaussianBlur stdDeviation="2"/>
<feColorMatrix type="matrix" values="0 0 0 0 0 0 0 0 0 0 0 0 0 0 0 0 0 0 0.25 0"/>
<feBlend mode="normal" in2="BackgroundImageFix" result="effect1_dropShadow"/>
<feBlend mode="normal" in="SourceGraphic" in2="effect1_dropShadow" result="shape"/>
</filter>
<filter id="filter15_d" x="306.859" y="59.5039" width="52.39" height="29.19" filterUnits="userSpaceOnUse" color-interpolation-filters="sRGB">
<feFlood flood-opacity="0" result="BackgroundImageFix"/>
<feColorMatrix in="SourceAlpha" type="matrix" values="0 0 0 0 0 0 0 0 0 0 0 0 0 0 0 0 0 0 127 0"/>
<feOffset dx="-2" dy="-2"/>
<feGaussianBlur stdDeviation="2"/>
<feColorMatrix type="matrix" values="0 0 0 0 0 0 0 0 0 0 0 0 0 0 0 0 0 0 0.25 0"/>
<feBlend mode="normal" in2="BackgroundImageFix" result="effect1_dropShadow"/>
<feBlend mode="normal" in="SourceGraphic" in2="effect1_dropShadow" result="shape"/>
</filter>
<filter id="filter16_d" x="72.9258" y="70.0117" width="38.62" height="18.68" filterUnits="userSpaceOnUse" color-interpolation-filters="sRGB">
<feFlood flood-opacity="0" result="BackgroundImageFix"/>
<feColorMatrix in="SourceAlpha" type="matrix" values="0 0 0 0 0 0 0 0 0 0 0 0 0 0 0 0 0 0 127 0"/>
<feOffset dx="-2" dy="-2"/>
<feGaussianBlur stdDeviation="2"/>
<feColorMatrix type="matrix" values="0 0 0 0 0 0 0 0 0 0 0 0 0 0 0 0 0 0 0.25 0"/>
<feBlend mode="normal" in2="BackgroundImageFix" result="effect1_dropShadow"/>
<feBlend mode="normal" in="SourceGraphic" in2="effect1_dropShadow" result="shape"/>
</filter>
<filter id="filter17_i" x="618.543" y="50.4805" width="95.96" height="42.17" filterUnits="userSpaceOnUse" color-interpolation-filters="sRGB">
<feFlood flood-opacity="0" result="BackgroundImageFix"/>
<feBlend mode="normal" in="SourceGraphic" in2="BackgroundImageFix" result="shape"/>
<feColorMatrix in="SourceAlpha" type="matrix" values="0 0 0 0 0 0 0 0 0 0 0 0 0 0 0 0 0 0 127 0" result="hardAlpha"/>
<feOffset dy="4"/>
<feGaussianBlur stdDeviation="2"/>
<feComposite in2="hardAlpha" operator="arithmetic" k2="-1" k3="1"/>
<feColorMatrix type="matrix" values="0 0 0 0 0 0 0 0 0 0 0 0 0 0 0 0 0 0 0.25 0"/>
<feBlend mode="normal" in2="shape" result="effect1_innerShadow"/>
</filter>
<filter id="filter18_d" x="366.32" y="56.9414" width="53.76" height="31.75" filterUnits="userSpaceOnUse" color-interpolation-filters="sRGB">
<feFlood flood-opacity="0" result="BackgroundImageFix"/>
<feColorMatrix in="SourceAlpha" type="matrix" values="0 0 0 0 0 0 0 0 0 0 0 0 0 0 0 0 0 0 127 0"/>
<feOffset dx="-2" dy="-2"/>
<feGaussianBlur stdDeviation="2"/>
<feColorMatrix type="matrix" values="0 0 0 0 0 0 0 0 0 0 0 0 0 0 0 0 0 0 0.25 0"/>
<feBlend mode="normal" in2="BackgroundImageFix" result="effect1_dropShadow"/>
<feBlend mode="normal" in="SourceGraphic" in2="effect1_dropShadow" result="shape"/>
</filter>
<filter id="filter19_d" x="433.59" y="54.6328" width="83.83" height="34.06" filterUnits="userSpaceOnUse" color-interpolation-filters="sRGB">
<feFlood flood-opacity="0" result="BackgroundImageFix"/>
<feColorMatrix in="SourceAlpha" type="matrix" values="0 0 0 0 0 0 0 0 0 0 0 0 0 0 0 0 0 0 127 0"/>
<feOffset dx="-2" dy="-2"/>
<feGaussianBlur stdDeviation="2"/>
<feColorMatrix type="matrix" values="0 0 0 0 0 0 0 0 0 0 0 0 0 0 0 0 0 0 0.25 0"/>
<feBlend mode="normal" in2="BackgroundImageFix" result="effect1_dropShadow"/>
<feBlend mode="normal" in="SourceGraphic" in2="effect1_dropShadow" result="shape"/>
</filter>
<filter id="filter20_d" x="160.941" y="66.0312" width="42.86" height="22.66" filterUnits="userSpaceOnUse" color-interpolation-filters="sRGB">
<feFlood flood-opacity="0" result="BackgroundImageFix"/>
<feColorMatrix in="SourceAlpha" type="matrix" values="0 0 0 0 0 0 0 0 0 0 0 0 0 0 0 0 0 0 127 0"/>
<feOffset dx="-2" dy="-2"/>
<feGaussianBlur stdDeviation="2"/>
<feColorMatrix type="matrix" values="0 0 0 0 0 0 0 0 0 0 0 0 0 0 0 0 0 0 0.25 0"/>
<feBlend mode="normal" in2="BackgroundImageFix" result="effect1_dropShadow"/>
<feBlend mode="normal" in="SourceGraphic" in2="effect1_dropShadow" result="shape"/>
</filter>
<filter id="filter21_d" x="108.207" y="68.4219" width="38.67" height="20.27" filterUnits="userSpaceOnUse" color-interpolation-filters="sRGB">
<feFlood flood-opacity="0" result="BackgroundImageFix"/>
<feColorMatrix in="SourceAlpha" type="matrix" values="0 0 0 0 0 0 0 0 0 0 0 0 0 0 0 0 0 0 127 0"/>
<feOffset dx="-2" dy="-2"/>
<feGaussianBlur stdDeviation="2"/>
<feColorMatrix type="matrix" values="0 0 0 0 0 0 0 0 0 0 0 0 0 0 0 0 0 0 0.25 0"/>
<feBlend mode="normal" in2="BackgroundImageFix" result="effect1_dropShadow"/>
<feBlend mode="normal" in="SourceGraphic" in2="effect1_dropShadow" result="shape"/>
</filter>
<filter id="filter22_d" x="516.16" y="49.2305" width="90.58" height="39.46" filterUnits="userSpaceOnUse" color-interpolation-filters="sRGB">
<feFlood flood-opacity="0" result="BackgroundImageFix"/>
<feColorMatrix in="SourceAlpha" type="matrix" values="0 0 0 0 0 0 0 0 0 0 0 0 0 0 0 0 0 0 127 0"/>
<feOffset dx="-2" dy="-2"/>
<feGaussianBlur stdDeviation="2"/>
<feColorMatrix type="matrix" values="0 0 0 0 0 0 0 0 0 0 0 0 0 0 0 0 0 0 0.25 0"/>
<feBlend mode="normal" in2="BackgroundImageFix" result="effect1_dropShadow"/>
<feBlend mode="normal" in="SourceGraphic" in2="effect1_dropShadow" result="shape"/>
</filter>
<filter id="filter23_i" x="723.609" y="46.5312" width="84.97" height="46.12" filterUnits="userSpaceOnUse" color-interpolation-filters="sRGB">
<feFlood flood-opacity="0" result="BackgroundImageFix"/>
<feBlend mode="normal" in="SourceGraphic" in2="BackgroundImageFix" result="shape"/>
<feColorMatrix in="SourceAlpha" type="matrix" values="0 0 0 0 0 0 0 0 0 0 0 0 0 0 0 0 0 0 127 0" result="hardAlpha"/>
<feOffset dy="4"/>
<feGaussianBlur stdDeviation="2"/>
<feComposite in2="hardAlpha" operator="arithmetic" k2="-1" k3="1"/>
<feColorMatrix type="matrix" values="0 0 0 0 0 0 0 0 0 0 0 0 0 0 0 0 0 0 0.25 0"/>
<feBlend mode="normal" in2="shape" result="effect1_innerShadow"/>
</filter>
<filter id="filter24_i" x="831.227" y="44" width="37.45" height="46.69" filterUnits="userSpaceOnUse" color-interpolation-filters="sRGB">
<feFlood flood-opacity="0" result="BackgroundImageFix"/>
<feBlend mode="normal" in="SourceGraphic" in2="BackgroundImageFix" result="shape"/>
<feColorMatrix in="SourceAlpha" type="matrix" values="0 0 0 0 0 0 0 0 0 0 0 0 0 0 0 0 0 0 127 0" result="hardAlpha"/>
<feOffset dy="4"/>
<feGaussianBlur stdDeviation="2"/>
<feComposite in2="hardAlpha" operator="arithmetic" k2="-1" k3="1"/>
<feColorMatrix type="matrix" values="0 0 0 0 0 0 0 0 0 0 0 0 0 0 0 0 0 0 0.25 0"/>
<feBlend mode="normal" in2="shape" result="effect1_innerShadow"/>
</filter>
</defs>
</svg>
