<svg width="30" height="29" viewBox="0 0 30 29" fill="none" xmlns="http://www.w3.org/2000/svg">
<path d="M9.41993 0.000231995C10.3649 0.0289712 11.2799 0.193969 12.1664 0.495466H12.2549C12.3149 0.523966 12.3599 0.555466 12.3899 0.583965C12.7214 0.690464 13.0349 0.810463 13.3349 0.975461L13.9049 1.23046C14.1299 1.35046 14.3999 1.57395 14.5499 1.66545C14.6999 1.75395 14.8649 1.84545 14.9999 1.94895C16.6663 0.675464 18.6898 -0.0145283 20.7748 0.000231995C21.7213 0.000231995 22.6663 0.13397 23.5648 0.435467C29.1012 2.23545 31.0962 8.31038 29.4297 13.6203C28.4847 16.3338 26.9397 18.8103 24.9163 20.8338C22.0198 23.6387 18.8413 26.1287 15.4199 28.2737L15.0449 28.5002L14.6549 28.2587C11.2214 26.1287 8.02494 23.6387 5.10147 20.8188C3.09149 18.7953 1.54501 16.3338 0.585019 13.6203C-1.10996 8.31038 0.885016 2.23545 6.48146 0.403967C6.91645 0.253969 7.36495 0.14897 7.81494 0.0904706H7.99494C8.41644 0.0289712 8.83493 0.000231995 9.25493 0.000231995H9.41993ZM22.7848 4.74042C22.1698 4.52892 21.4948 4.86042 21.2698 5.49041C21.0598 6.12041 21.3898 6.8104 22.0198 7.0339C22.9813 7.39389 23.6248 8.34038 23.6248 9.38887V9.43537C23.5963 9.77887 23.6998 10.1104 23.9098 10.3654C24.1198 10.6204 24.4348 10.7689 24.7648 10.8004C25.3798 10.7839 25.9048 10.2904 25.9498 9.65887V9.48037C25.9948 7.37889 24.7213 5.47541 22.7848 4.74042Z" fill="#FF4A4A"/>
</svg>
