<svg width="30" height="32" viewBox="0 0 30 32" fill="none" xmlns="http://www.w3.org/2000/svg">
<path d="M10.476 29.6421V24.8141C10.476 23.5817 11.4824 22.5826 12.7238 22.5826H17.262C17.8582 22.5826 18.4299 22.8177 18.8515 23.2362C19.2731 23.6547 19.5099 24.2223 19.5099 24.8141V29.6421C19.5061 30.1545 19.7085 30.6472 20.0722 31.0108C20.4358 31.3744 20.9306 31.5789 21.4468 31.5789H24.5429C25.9889 31.5827 27.377 31.015 28.4008 30.0013C29.4246 28.9875 30 27.611 30 26.1755V12.4214C30 11.2618 29.4822 10.1619 28.5862 9.4179L18.0537 1.06716C16.2216 -0.397008 13.5965 -0.349734 11.819 1.17944L1.52686 9.4179C0.588538 10.1399 0.0277141 11.2431 0 12.4214V26.1615C0 29.1535 2.44323 31.5789 5.45712 31.5789H8.48256C9.55457 31.5789 10.4258 30.7203 10.4336 29.6562L10.476 29.6421Z" fill="#5352ED"/>
</svg>
