<svg width="36" height="42" viewBox="0 0 36 42" fill="none" xmlns="http://www.w3.org/2000/svg">
<path d="M36 30.8131C35.016 32.9989 34.5466 33.9789 33.2796 35.9067C31.5175 38.6083 29.0222 41.9739 25.9353 41.9933C23.1956 42.0191 22.4882 40.2008 18.7646 40.2331C15.041 40.246 14.2628 42.0255 11.5167 41.9997C8.43618 41.9739 6.07596 38.9371 4.3074 36.2485C-0.638137 28.6983 -1.15906 19.8457 1.89573 15.139C4.05659 11.7991 7.47795 9.83905 10.6935 9.83905C13.9605 9.83905 16.0185 11.6379 18.726 11.6379C21.3499 11.6379 22.9448 9.8326 26.7327 9.8326C29.5882 9.8326 32.6172 11.3929 34.7781 14.0945C27.7038 17.9759 28.855 28.1051 36 30.8131ZM23.858 6.81512C25.2343 5.04848 26.2761 2.54681 25.9031 0C23.6522 0.154743 21.0283 1.59256 19.4913 3.44947C18.1022 5.14519 16.951 7.66621 17.4012 10.1034C19.8514 10.1808 22.3853 8.71717 23.858 6.81512Z" fill="white"/>
</svg>
