<svg width="25" height="23" viewBox="0 0 25 23" fill="none" xmlns="http://www.w3.org/2000/svg">
<path d="M15.4375 0C16.65 0.0124861 17.6375 0.636792 18.2125 1.76054C18.3609 2.05709 18.568 2.4902 18.7848 2.94709L19.0465 3.49955L19.175 3.77081L19.3 4.04551C19.35 4.13291 19.4375 4.19534 19.55 4.19534C22.55 4.19534 25 6.64262 25 9.63929V17.056C25 20.0527 22.55 22.5 19.55 22.5H5.45C2.4375 22.5 0 20.0527 0 17.056V9.63929C0 6.64262 2.4375 4.19534 5.45 4.19534C5.55 4.19534 5.65 4.14539 5.6875 4.04551L5.7625 3.89567C6.1125 3.15899 6.5375 2.25999 6.7875 1.76054C7.3625 0.636792 8.3375 0.0124861 9.55 0H15.4375ZM12.5 8.00361C11.1875 8.00361 9.95 8.51554 9.0125 9.452C8.0875 10.3885 7.575 11.6121 7.5875 12.9107C7.5875 14.2217 8.1 15.4453 9.025 16.3818C9.9625 17.3058 11.1875 17.8177 12.5 17.8177C13.85 17.8177 15.075 17.2683 15.9625 16.3818C16.85 15.4953 17.4 14.2716 17.4125 12.9107C17.4125 11.6121 16.9 10.376 15.975 9.43951C15.05 8.51554 13.8125 8.00361 12.5 8.00361ZM12.5 9.87653C13.3125 9.87653 14.075 10.1887 14.65 10.763C15.225 11.3374 15.5375 12.0991 15.5375 12.9107C15.525 14.5838 14.175 15.9448 12.5 15.9448C11.6875 15.9448 10.925 15.6326 10.35 15.0583C9.775 14.4839 9.4625 13.7223 9.4625 12.9107V12.8982C9.45 12.1115 9.7625 11.3499 10.3375 10.7755C10.925 10.1887 11.6875 9.87653 12.5 9.87653ZM19.5125 7.70394C18.8875 7.70394 18.3875 8.21587 18.3875 8.84018C18.3875 9.46448 18.8875 9.96393 19.5125 9.96393C20.1375 9.96393 20.65 9.46448 20.65 8.84018C20.65 8.21587 20.1375 7.70394 19.5125 7.70394Z" fill="#5352ED"/>
</svg>
