<svg width="50" height="50" viewBox="0 0 50 50" fill="none" xmlns="http://www.w3.org/2000/svg">
<circle cx="25" cy="25" r="25" fill="white"/>
<path d="M43.342 25.005C43.342 34.4203 36.254 42.1712 27.1208 43.2221C26.4296 43.2996 25.7173 43.342 25.005 43.342C23.799 43.342 22.6212 43.2221 21.4786 42.9964C13.0365 41.3602 6.66797 33.9266 6.66797 25.005C6.66797 14.8773 14.8773 6.66797 25.005 6.66797C35.1326 6.66797 43.342 14.8773 43.342 25.005Z" fill="url(#paint0_linear)"/>
<path d="M32.621 27.8594L32.085 29.2699C31.7746 30.0951 30.9706 30.6452 30.0749 30.6452H27.1199V43.2202C26.4287 43.2977 25.7164 43.34 25.0041 43.34C23.798 43.34 22.6202 43.2202 21.4777 42.9945V30.6452H19.3972C18.2053 30.6452 17.2461 29.7001 17.2461 28.5294V27.1189C17.2461 25.9481 18.2053 25.0031 19.3972 25.0031H21.4777V20.7714C21.4777 16.8854 24.6444 13.7188 28.5304 13.7188H30.6462C32.2049 13.7188 33.4673 14.9812 33.4673 16.5398C33.4673 18.0985 32.2049 19.3609 30.6462 19.3609H28.5304C27.7546 19.3609 27.1199 19.9956 27.1199 20.7714V25.0031H30.6109C32.1132 25.0031 33.1499 26.4771 32.621 27.8594Z" fill="white"/>
<defs>
<linearGradient id="paint0_linear" x1="25.005" y1="51.3397" x2="25.005" y2="7.21596" gradientUnits="userSpaceOnUse">
<stop stop-color="#155CDE"/>
<stop offset="0.278" stop-color="#1F7FE5"/>
<stop offset="0.569" stop-color="#279CEB"/>
<stop offset="0.82" stop-color="#2CAFEF"/>
<stop offset="1" stop-color="#2EB5F0"/>
</linearGradient>
</defs>
</svg>
