<svg width="293" height="140" viewBox="0 0 293 140" fill="none" xmlns="http://www.w3.org/2000/svg">
<path d="M26.223 88.7947C27.2393 86.308 30.7607 86.308 31.777 88.7947L35.8825 98.8398C36.3131 99.8935 37.303 100.613 38.4382 100.697L49.2603 101.497C51.9394 101.695 53.0276 105.044 50.9766 106.779L42.6918 113.788C41.8228 114.523 41.4447 115.687 41.7156 116.792L44.2986 127.332C44.938 129.941 42.0891 132.011 39.8053 130.597L30.5795 124.883C29.6118 124.284 28.3882 124.284 27.4205 124.883L18.1947 130.597C15.9109 132.011 13.062 129.941 13.7014 127.332L16.2844 116.792C16.5553 115.687 16.1772 114.523 15.3082 113.788L7.02338 106.779C4.97245 105.044 6.06062 101.695 8.73967 101.497L19.5618 100.697C20.697 100.613 21.6869 99.8935 22.1175 98.8398L26.223 88.7947Z" fill="#FBBE2E"/>
<path d="M143.223 88.7947C144.239 86.308 147.761 86.308 148.777 88.7947L152.882 98.8398C153.313 99.8935 154.303 100.613 155.438 100.697L166.26 101.497C168.939 101.695 170.028 105.044 167.977 106.779L159.692 113.788C158.823 114.523 158.445 115.687 158.716 116.792L161.299 127.332C161.938 129.941 159.089 132.011 156.805 130.597L147.58 124.883C146.612 124.284 145.388 124.284 144.42 124.883L135.195 130.597C132.911 132.011 130.062 129.941 130.701 127.332L133.284 116.792C133.555 115.687 133.177 114.523 132.308 113.788L124.023 106.779C121.972 105.044 123.061 101.695 125.74 101.497L136.562 100.697C137.697 100.613 138.687 99.8935 139.118 98.8398L143.223 88.7947Z" fill="#FBBE2E"/>
<path d="M84.7299 88.663C85.7545 86.1986 89.2455 86.1986 90.2701 88.663L94.5067 98.8532C94.9417 99.8995 95.9291 100.611 97.0593 100.694L108.133 101.499C110.826 101.695 111.91 105.071 109.834 106.797L101.433 113.783C100.548 114.52 100.162 115.698 100.441 116.816L103.073 127.376C103.722 129.978 100.892 132.058 98.6023 130.664L89.06 124.855C88.1018 124.271 86.8982 124.271 85.94 124.855L76.3977 130.664C74.1076 132.058 71.2782 129.978 71.9267 127.376L74.5593 116.816C74.8379 115.698 74.4522 114.52 73.5667 113.783L65.1664 106.797C63.0901 105.071 64.1737 101.695 66.867 101.499L77.9407 100.694C79.0709 100.611 80.0583 99.8995 80.4933 98.8532L84.7299 88.663Z" fill="#FBBE2E"/>
<path d="M201.73 88.663C202.754 86.1986 206.246 86.1986 207.27 88.663L211.507 98.8532C211.942 99.8995 212.929 100.611 214.059 100.694L225.133 101.499C227.826 101.695 228.91 105.071 226.834 106.797L218.433 113.783C217.548 114.52 217.162 115.698 217.441 116.816L220.073 127.376C220.722 129.978 217.892 132.058 215.602 130.664L206.06 124.855C205.102 124.271 203.898 124.271 202.94 124.855L193.398 130.664C191.108 132.058 188.278 129.978 188.927 127.376L191.559 116.816C191.838 115.698 191.452 114.52 190.567 113.783L182.166 106.797C180.09 105.071 181.174 101.695 183.867 101.499L194.941 100.694C196.071 100.611 197.058 99.8995 197.493 98.8532L201.73 88.663Z" fill="#FBBE2E"/>
<path d="M260.73 88.663C261.754 86.1986 265.246 86.1986 266.27 88.663L270.507 98.8532C270.942 99.8995 271.929 100.611 273.059 100.694L284.133 101.499C286.826 101.695 287.91 105.071 285.834 106.797L277.433 113.783C276.548 114.52 276.162 115.698 276.441 116.816L279.073 127.376C279.722 129.978 276.892 132.058 274.602 130.664L265.06 124.855C264.102 124.271 262.898 124.271 261.94 124.855L252.398 130.664C250.108 132.058 247.278 129.978 247.927 127.376L250.559 116.816C250.838 115.698 250.452 114.52 249.567 113.783L241.166 106.797C239.09 105.071 240.174 101.695 242.867 101.499L253.941 100.694C255.071 100.611 256.058 99.8995 256.493 98.8532L260.73 88.663Z" fill="#D9D7D7"/>
<mask id="mask0" mask-type="alpha" maskUnits="userSpaceOnUse" x="239" y="86" width="48" height="46">
<path d="M260.223 88.7947C261.239 86.308 264.761 86.308 265.777 88.7947L269.882 98.8398C270.313 99.8935 271.303 100.613 272.438 100.697L283.26 101.497C285.939 101.695 287.028 105.044 284.977 106.779L276.692 113.788C275.823 114.523 275.445 115.687 275.716 116.792L278.299 127.332C278.938 129.941 276.089 132.011 273.805 130.597L264.58 124.883C263.612 124.284 262.388 124.284 261.42 124.883L252.195 130.597C249.911 132.011 247.062 129.941 247.701 127.332L250.284 116.792C250.555 115.687 250.177 114.523 249.308 113.788L241.023 106.779C238.972 105.044 240.061 101.695 242.74 101.497L253.562 100.697C254.697 100.613 255.687 99.8935 256.118 98.8398L260.223 88.7947Z" fill="#5352ED"/>
</mask>
<g mask="url(#mask0)">
<path d="M263 123.11V85.3729L225 74L238.534 115.873L248.425 135L263 123.11Z" fill="#FBBE2E" stroke="#FBBE2E"/>
</g>
<rect x="110" width="72" height="72" rx="36" fill="#5352EC"/>
<path d="M123.47 43.1V38.96L132.95 25.4H138.68V38.66H141.14V43.1H138.68V47H133.55V43.1H123.47ZM133.91 31.04L128.87 38.66H133.91V31.04ZM146.563 47.24C145.663 47.24 144.923 46.98 144.343 46.46C143.783 45.92 143.503 45.26 143.503 44.48C143.503 43.68 143.783 43.01 144.343 42.47C144.923 41.93 145.663 41.66 146.563 41.66C147.443 41.66 148.163 41.93 148.723 42.47C149.303 43.01 149.593 43.68 149.593 44.48C149.593 45.26 149.303 45.92 148.723 46.46C148.163 46.98 147.443 47.24 146.563 47.24ZM167.54 29.57H158.18V33.71C158.58 33.27 159.14 32.91 159.86 32.63C160.58 32.35 161.36 32.21 162.2 32.21C163.7 32.21 164.94 32.55 165.92 33.23C166.92 33.91 167.65 34.79 168.11 35.87C168.57 36.95 168.8 38.12 168.8 39.38C168.8 41.72 168.14 43.58 166.82 44.96C165.5 46.32 163.64 47 161.24 47C159.64 47 158.25 46.73 157.07 46.19C155.89 45.63 154.98 44.86 154.34 43.88C153.7 42.9 153.35 41.77 153.29 40.49H158.3C158.42 41.11 158.71 41.63 159.17 42.05C159.63 42.45 160.26 42.65 161.06 42.65C162 42.65 162.7 42.35 163.16 41.75C163.62 41.15 163.85 40.35 163.85 39.35C163.85 38.37 163.61 37.62 163.13 37.1C162.65 36.58 161.95 36.32 161.03 36.32C160.35 36.32 159.79 36.49 159.35 36.83C158.91 37.15 158.62 37.58 158.48 38.12H153.53V25.07H167.54V29.57Z" fill="#FCFCFC"/>
</svg>
