<svg width="673" height="68" viewBox="0 0 673 68" fill="none" xmlns="http://www.w3.org/2000/svg">
<path d="M67.9563 1.71094L75.0449 31.5884L55.3247 32.4206L53.4597 22.5902L47.6194 32.7401L26.4727 33.6317L46.8095 1.71094H67.9563Z" fill="white"/>
<path d="M292.188 1.71094L294.231 22.3747L260.898 23.7716L272.401 1.71094H292.188Z" fill="white"/>
<path d="M211.17 1.41177C215.271 2.35542 218.808 3.70774 221.787 5.46874L214.038 21.1468C211.548 19.5715 208.799 18.3827 205.79 17.5951C202.781 16.8075 199.697 16.4136 196.532 16.4136C193.56 16.4136 191.249 16.8372 189.607 17.6842C187.965 18.5387 187.147 19.5418 187.147 20.6935C187.147 21.8527 187.89 22.7592 189.376 23.4279C190.87 24.0966 193.314 24.8322 196.717 25.6198C197.438 25.7907 198.137 25.9616 198.82 26.14L165.971 27.5146C165.74 26.4149 165.629 25.2335 165.629 23.9777C165.629 19.1777 166.922 14.9647 169.508 11.3536C172.086 7.73499 175.808 4.94118 180.675 2.96471C185.535 0.988236 191.278 0 197.906 0C202.647 0.00743035 207.068 0.468112 211.17 1.41177Z" fill="white"/>
<path d="M141.212 1.71094H162.18L156.89 28.1481L135.758 29.0323L141.212 1.71094Z" fill="white"/>
<path d="M315.103 1.71094H336.257L326.211 21.0298L304.566 21.9364L315.103 1.71094Z" fill="white"/>
<path d="M340.97 1.71094H392.834L389.557 17.9463H358.84L358.498 19.6701L337.195 20.5692L340.97 1.71094Z" fill="white"/>
<g filter="url(#filter0_i)">
<path d="M528.769 12.2679L468.68 14.7942C471.815 10.6778 475.783 7.36386 480.568 4.83754C486.676 1.6202 493.586 0.0078125 501.306 0.0078125C507.808 0.0078125 513.507 1.21153 518.404 3.61153C522.743 5.73661 526.206 8.61959 528.769 12.2679Z" fill="white"/>
</g>
<path d="M116.881 1.71094L133.778 29.1141L93.3789 30.8156L99.1969 1.71094H116.881Z" fill="white"/>
<path d="M249.56 1.71094L252.086 24.1506L231.118 25.0348L228.316 1.71094H249.56Z" fill="white"/>
<path d="M456.376 15.5537L399.051 17.9685L402.305 1.71094H430.934C439.316 1.71094 445.84 3.55366 450.484 7.23169C453.307 9.46079 455.276 12.2397 456.376 15.5537Z" fill="white"/>
<g filter="url(#filter1_i)">
<path d="M588.035 1.71094H609.197L607.703 9.20073H607.688L586.363 10.0998L588.035 1.71094Z" fill="white"/>
</g>
<g filter="url(#filter2_i)">
<path d="M672.208 1.71094L671.234 6.53323L611.836 9.02983L613.315 1.71094H672.208Z" fill="white"/>
</g>
<g filter="url(#filter3_i)">
<path d="M546.997 1.71094H568.508L566.68 10.9246L544.969 11.8311L546.997 1.71094Z" fill="white"/>
</g>
<g filter="url(#filter4_i)">
<path d="M453.006 15.1211L395.681 17.536L390.383 44.0252L445.241 41.7218C446.898 40.3471 448.34 38.7942 449.58 37.0629C452.59 32.8425 454.091 27.9013 454.091 22.2468C454.091 19.6387 453.734 17.2685 453.006 15.1211ZM429.838 30.5911C428.196 32.0772 425.892 32.8276 422.913 32.8276H414.071L417.08 17.8703H424.28C429.63 17.8703 432.305 20.0326 432.305 24.3422C432.305 27.0171 431.48 29.105 429.838 30.5911Z" fill="white"/>
</g>
<g filter="url(#filter5_dii)">
<path d="M527.44 13.5563C527.143 13.0733 526.831 12.6052 526.504 12.1445L466.415 14.6708H466.407C465.538 15.8003 464.736 16.9965 463.993 18.2523C460.552 24.0628 458.836 30.6684 458.836 38.0839C458.836 39.1687 458.888 40.2238 458.985 41.2566L480.912 40.3353C480.659 39.243 480.533 38.069 480.533 36.8059C480.533 33.2839 481.201 30.0294 482.539 27.0498C483.876 24.0777 485.808 21.7074 488.334 19.939C490.853 18.178 493.818 17.2938 497.221 17.2938C501.107 17.2938 504.161 18.4232 506.383 20.6671C508.597 22.9185 509.712 25.9278 509.712 29.695C509.712 33.1278 509.08 36.2932 507.817 39.1984L530.286 38.2548C531.037 35.1489 531.408 31.8721 531.408 28.417C531.408 22.8294 530.086 17.8733 527.44 13.5563Z" fill="white"/>
</g>
<g filter="url(#filter6_i)">
<path d="M70.766 31.1992L51.0459 32.0314L52.2793 38.5181H39.7963L43.3406 32.3509L22.1938 33.2426L5 60.2296L27.9375 59.2711L30.9468 54.0178H55.2886L56.0614 58.0896L76.9332 57.2054L70.766 31.1992Z" fill="white"/>
</g>
<g filter="url(#filter7_i)">
<path d="M131.407 28.892L130.931 31.292L129.505 28.9738L89.106 30.6753L83.8008 57.1645L104.948 56.2729L109.057 35.6685L121.339 55.5893L147.241 54.497L152.539 28.0078L131.407 28.892Z" fill="white"/>
</g>
<g filter="url(#filter8_i)">
<path d="M210.118 33.7103C208.045 31.3995 205.601 29.6979 202.777 28.6057C200.444 27.7066 197.665 26.8447 194.448 26.0273H194.44L161.591 27.402C162.052 29.6459 162.988 31.5481 164.4 33.1159C166.495 35.4565 168.939 37.1877 171.733 38.3171C174.527 39.4391 178.056 40.5462 182.307 41.6385C185.531 42.4336 187.887 43.1617 189.373 43.8305C190.866 44.4992 191.609 45.376 191.609 46.4757C191.609 47.6274 190.881 48.5413 189.418 49.21C187.961 49.8788 185.866 50.2131 183.131 50.2131C175.656 50.2131 168.486 48.2367 161.613 44.2837L156.598 53.8837L211.448 51.5803C212.63 48.9202 213.217 46.0075 213.217 42.8274C213.217 39.0602 212.184 36.0212 210.118 33.7103Z" fill="white"/>
</g>
<g filter="url(#filter9_i)">
<path d="M300.404 21.5471L291.711 38.2431L290.106 21.9855L256.773 23.3824L249.313 37.7007L247.745 23.7614H247.738L226.77 24.6456L229.905 50.7781L262.888 49.3961L272.199 31.5038L274.086 48.9205L308.087 47.4939L322.049 20.6406L300.404 21.5471Z" fill="white"/>
</g>
<g filter="url(#filter10_i)">
<path d="M353.248 24.7905L354.37 19.0469L333.067 19.9459L327.77 46.4351L349.035 45.5435L350.061 40.2902H377.137L380.235 24.7905H353.248Z" fill="white"/>
</g>
<g filter="url(#filter11_dii)">
<path d="M583.399 9.3643L578.146 35.7197C578.138 35.7643 578.123 35.8163 578.116 35.8609L599.434 34.9619L604.724 8.47266L583.399 9.3643ZM537.033 36.0838C536.937 36.5965 536.848 37.1018 536.773 37.5922L558.448 36.6857C558.5 36.3736 558.567 36.0467 558.634 35.7197L563.731 10.1965L542.027 11.103L537.033 36.0838Z" fill="white"/>
</g>
<g filter="url(#filter12_dii)">
<path d="M608.875 8.35635L606.98 17.7335H625.668L622.421 34.0579L644.117 33.144L647.186 17.7335H665.873L668.273 5.86719L608.875 8.35635Z" fill="white"/>
</g>
<g filter="url(#filter13_d)">
<path d="M161.249 53.2644L216.1 50.9609C215.528 52.2687 214.807 53.5096 213.945 54.6984C211.33 58.2798 207.593 61.0662 202.733 63.0353C197.874 65.0117 192.16 66 185.591 66C180.063 66 174.869 65.4055 170.002 64.2241C165.143 63.0353 161.131 61.4749 157.973 59.5281L161.249 53.2644Z" fill="white"/>
</g>
<g filter="url(#filter14_d)">
<path d="M9.67896 59.2632L32.6164 58.3047L29.2505 64.1747H6.55078L9.67896 59.2632Z" fill="white"/>
</g>
<g filter="url(#filter15_d)">
<path d="M234.34 50.2453L267.323 48.8633L259.128 64.6082H236.064L234.34 50.2453Z" fill="white"/>
</g>
<g filter="url(#filter16_d)">
<path d="M81.2273 56.6836L83.1072 64.6192H61.6855L60.3555 57.5678L81.2273 56.6836Z" fill="white"/>
</g>
<g filter="url(#filter17_i)">
<path d="M510.285 38.1741L532.755 37.2305C531.908 40.7896 530.563 44.1258 528.728 47.2243C525.287 53.0274 520.517 57.5376 514.409 60.7624C508.301 63.9872 501.391 65.5921 493.671 65.5921C487.17 65.5921 481.47 64.3958 476.581 61.9958C471.685 59.5958 467.917 56.2373 465.272 51.9203C463.14 48.4354 461.862 44.5419 461.453 40.2323L483.38 39.311C483.871 41.4806 484.859 43.3159 486.33 44.8094C488.552 47.0534 491.605 48.1828 495.492 48.1828C498.895 48.1828 501.859 47.2986 504.386 45.5376C506.905 43.7766 508.836 41.4063 510.174 38.4268C510.219 38.345 510.256 38.2559 510.285 38.1741Z" fill="white"/>
</g>
<g filter="url(#filter18_d)">
<path d="M278.484 48.1727L312.486 46.7461L303.309 64.3932H280.245L278.484 48.1727Z" fill="white"/>
</g>
<g filter="url(#filter19_d)">
<path d="M352.811 48.0731H384.813L381.529 64.301H328.469L332.162 45.8291L353.427 44.9375L352.811 48.0731Z" fill="white"/>
</g>
<g filter="url(#filter20_d)">
<path d="M125.668 54.8579L151.57 53.7656L149.393 64.6585H131.709L125.668 54.8579Z" fill="white"/>
</g>
<g filter="url(#filter21_d)">
<path d="M88.1148 56.2198L109.262 55.3281L107.441 64.4452H86.4727L88.1148 56.2198Z" fill="white"/>
</g>
<g filter="url(#filter22_d)">
<path d="M440.651 45.8441L451.321 64.4423H428.985L419.957 48.3927H414.667L411.479 64.4423H389.961L394.174 43.3698L449.032 41.0664C446.669 43.0354 443.876 44.6255 440.651 45.8441Z" fill="white"/>
</g>
<g filter="url(#filter23_i)">
<path d="M581.345 35.4147L602.663 34.5156L602.254 36.5515C600.308 46.211 596.414 53.5076 590.581 58.4265C584.748 63.3528 576.969 65.8123 567.243 65.8123C561.529 65.8123 556.595 64.8537 552.434 62.9441C548.265 61.0271 545.078 58.3076 542.856 54.7856C540.642 51.2562 539.527 47.1249 539.527 42.3844C539.527 40.8314 539.683 39.0853 540.003 37.146L561.677 36.2395C561.439 37.5695 561.321 38.7955 561.321 39.9249C561.321 42.7782 562.049 44.9033 563.505 46.3076C564.969 47.7045 567.094 48.403 569.888 48.403C573.046 48.403 575.513 47.3999 577.274 45.3937C579.02 43.4098 580.379 40.081 581.345 35.4147Z" fill="white"/>
</g>
<g filter="url(#filter24_i)">
<path d="M647.385 32.9375L641.062 64.6577H619.559L625.696 33.8514L647.385 32.9375Z" fill="white"/>
</g>
<defs>
<filter id="filter0_i" x="468.68" y="-3.99219" width="60.0893" height="18.7864" filterUnits="userSpaceOnUse" color-interpolation-filters="sRGB">
<feFlood flood-opacity="0" result="BackgroundImageFix"/>
<feBlend mode="normal" in="SourceGraphic" in2="BackgroundImageFix" result="shape"/>
<feColorMatrix in="SourceAlpha" type="matrix" values="0 0 0 0 0 0 0 0 0 0 0 0 0 0 0 0 0 0 127 0" result="hardAlpha"/>
<feOffset dy="-4"/>
<feGaussianBlur stdDeviation="2"/>
<feComposite in2="hardAlpha" operator="arithmetic" k2="-1" k3="1"/>
<feColorMatrix type="matrix" values="0 0 0 0 0 0 0 0 0 0 0 0 0 0 0 0 0 0 0.25 0"/>
<feBlend mode="normal" in2="shape" result="effect1_innerShadow"/>
</filter>
<filter id="filter1_i" x="586.363" y="-2.28906" width="22.8335" height="12.3889" filterUnits="userSpaceOnUse" color-interpolation-filters="sRGB">
<feFlood flood-opacity="0" result="BackgroundImageFix"/>
<feBlend mode="normal" in="SourceGraphic" in2="BackgroundImageFix" result="shape"/>
<feColorMatrix in="SourceAlpha" type="matrix" values="0 0 0 0 0 0 0 0 0 0 0 0 0 0 0 0 0 0 127 0" result="hardAlpha"/>
<feOffset dy="-4"/>
<feGaussianBlur stdDeviation="2"/>
<feComposite in2="hardAlpha" operator="arithmetic" k2="-1" k3="1"/>
<feColorMatrix type="matrix" values="0 0 0 0 0 0 0 0 0 0 0 0 0 0 0 0 0 0 0.25 0"/>
<feBlend mode="normal" in2="shape" result="effect1_innerShadow"/>
</filter>
<filter id="filter2_i" x="611.836" y="-2.28906" width="60.3716" height="11.3189" filterUnits="userSpaceOnUse" color-interpolation-filters="sRGB">
<feFlood flood-opacity="0" result="BackgroundImageFix"/>
<feBlend mode="normal" in="SourceGraphic" in2="BackgroundImageFix" result="shape"/>
<feColorMatrix in="SourceAlpha" type="matrix" values="0 0 0 0 0 0 0 0 0 0 0 0 0 0 0 0 0 0 127 0" result="hardAlpha"/>
<feOffset dy="-4"/>
<feGaussianBlur stdDeviation="2"/>
<feComposite in2="hardAlpha" operator="arithmetic" k2="-1" k3="1"/>
<feColorMatrix type="matrix" values="0 0 0 0 0 0 0 0 0 0 0 0 0 0 0 0 0 0 0.25 0"/>
<feBlend mode="normal" in2="shape" result="effect1_innerShadow"/>
</filter>
<filter id="filter3_i" x="544.969" y="-2.28906" width="23.5393" height="14.1201" filterUnits="userSpaceOnUse" color-interpolation-filters="sRGB">
<feFlood flood-opacity="0" result="BackgroundImageFix"/>
<feBlend mode="normal" in="SourceGraphic" in2="BackgroundImageFix" result="shape"/>
<feColorMatrix in="SourceAlpha" type="matrix" values="0 0 0 0 0 0 0 0 0 0 0 0 0 0 0 0 0 0 127 0" result="hardAlpha"/>
<feOffset dy="-4"/>
<feGaussianBlur stdDeviation="2"/>
<feComposite in2="hardAlpha" operator="arithmetic" k2="-1" k3="1"/>
<feColorMatrix type="matrix" values="0 0 0 0 0 0 0 0 0 0 0 0 0 0 0 0 0 0 0.25 0"/>
<feBlend mode="normal" in2="shape" result="effect1_innerShadow"/>
</filter>
<filter id="filter4_i" x="390.383" y="15.1211" width="63.7078" height="32.9041" filterUnits="userSpaceOnUse" color-interpolation-filters="sRGB">
<feFlood flood-opacity="0" result="BackgroundImageFix"/>
<feBlend mode="normal" in="SourceGraphic" in2="BackgroundImageFix" result="shape"/>
<feColorMatrix in="SourceAlpha" type="matrix" values="0 0 0 0 0 0 0 0 0 0 0 0 0 0 0 0 0 0 127 0" result="hardAlpha"/>
<feOffset dy="4"/>
<feGaussianBlur stdDeviation="2"/>
<feComposite in2="hardAlpha" operator="arithmetic" k2="-1" k3="1"/>
<feColorMatrix type="matrix" values="0 0 0 0 0 0 0 0 0 0 0 0 0 0 0 0 0 0 0.25 0"/>
<feBlend mode="normal" in2="shape" result="effect1_innerShadow"/>
</filter>
<filter id="filter5_dii" x="454.836" y="8.14453" width="80.5723" height="41.1121" filterUnits="userSpaceOnUse" color-interpolation-filters="sRGB">
<feFlood flood-opacity="0" result="BackgroundImageFix"/>
<feColorMatrix in="SourceAlpha" type="matrix" values="0 0 0 0 0 0 0 0 0 0 0 0 0 0 0 0 0 0 127 0"/>
<feOffset dy="4"/>
<feGaussianBlur stdDeviation="2"/>
<feColorMatrix type="matrix" values="0 0 0 0 0 0 0 0 0 0 0 0 0 0 0 0 0 0 0.25 0"/>
<feBlend mode="normal" in2="BackgroundImageFix" result="effect1_dropShadow"/>
<feBlend mode="normal" in="SourceGraphic" in2="effect1_dropShadow" result="shape"/>
<feColorMatrix in="SourceAlpha" type="matrix" values="0 0 0 0 0 0 0 0 0 0 0 0 0 0 0 0 0 0 127 0" result="hardAlpha"/>
<feOffset dy="4"/>
<feGaussianBlur stdDeviation="2"/>
<feComposite in2="hardAlpha" operator="arithmetic" k2="-1" k3="1"/>
<feColorMatrix type="matrix" values="0 0 0 0 0.498039 0 0 0 0 0.494118 0 0 0 0 0.964706 0 0 0 0.15 0"/>
<feBlend mode="normal" in2="shape" result="effect2_innerShadow"/>
<feColorMatrix in="SourceAlpha" type="matrix" values="0 0 0 0 0 0 0 0 0 0 0 0 0 0 0 0 0 0 127 0" result="hardAlpha"/>
<feOffset dy="-4"/>
<feGaussianBlur stdDeviation="2"/>
<feComposite in2="hardAlpha" operator="arithmetic" k2="-1" k3="1"/>
<feColorMatrix type="matrix" values="0 0 0 0 0.498457 0 0 0 0 0.495417 0 0 0 0 0.966667 0 0 0 0.15 0"/>
<feBlend mode="normal" in2="effect2_innerShadow" result="effect3_innerShadow"/>
</filter>
<filter id="filter6_i" x="5" y="31.1992" width="71.9332" height="33.0304" filterUnits="userSpaceOnUse" color-interpolation-filters="sRGB">
<feFlood flood-opacity="0" result="BackgroundImageFix"/>
<feBlend mode="normal" in="SourceGraphic" in2="BackgroundImageFix" result="shape"/>
<feColorMatrix in="SourceAlpha" type="matrix" values="0 0 0 0 0 0 0 0 0 0 0 0 0 0 0 0 0 0 127 0" result="hardAlpha"/>
<feOffset dy="4"/>
<feGaussianBlur stdDeviation="2"/>
<feComposite in2="hardAlpha" operator="arithmetic" k2="-1" k3="1"/>
<feColorMatrix type="matrix" values="0 0 0 0 0 0 0 0 0 0 0 0 0 0 0 0 0 0 0.25 0"/>
<feBlend mode="normal" in2="shape" result="effect1_innerShadow"/>
</filter>
<filter id="filter7_i" x="83.8008" y="28.0078" width="68.7381" height="33.1567" filterUnits="userSpaceOnUse" color-interpolation-filters="sRGB">
<feFlood flood-opacity="0" result="BackgroundImageFix"/>
<feBlend mode="normal" in="SourceGraphic" in2="BackgroundImageFix" result="shape"/>
<feColorMatrix in="SourceAlpha" type="matrix" values="0 0 0 0 0 0 0 0 0 0 0 0 0 0 0 0 0 0 127 0" result="hardAlpha"/>
<feOffset dy="4"/>
<feGaussianBlur stdDeviation="2"/>
<feComposite in2="hardAlpha" operator="arithmetic" k2="-1" k3="1"/>
<feColorMatrix type="matrix" values="0 0 0 0 0 0 0 0 0 0 0 0 0 0 0 0 0 0 0.25 0"/>
<feBlend mode="normal" in2="shape" result="effect1_innerShadow"/>
</filter>
<filter id="filter8_i" x="156.598" y="26.0273" width="56.6193" height="31.8564" filterUnits="userSpaceOnUse" color-interpolation-filters="sRGB">
<feFlood flood-opacity="0" result="BackgroundImageFix"/>
<feBlend mode="normal" in="SourceGraphic" in2="BackgroundImageFix" result="shape"/>
<feColorMatrix in="SourceAlpha" type="matrix" values="0 0 0 0 0 0 0 0 0 0 0 0 0 0 0 0 0 0 127 0" result="hardAlpha"/>
<feOffset dy="4"/>
<feGaussianBlur stdDeviation="2"/>
<feComposite in2="hardAlpha" operator="arithmetic" k2="-1" k3="1"/>
<feColorMatrix type="matrix" values="0 0 0 0 0 0 0 0 0 0 0 0 0 0 0 0 0 0 0.25 0"/>
<feBlend mode="normal" in2="shape" result="effect1_innerShadow"/>
</filter>
<filter id="filter9_i" x="226.77" y="20.6406" width="95.2794" height="34.1375" filterUnits="userSpaceOnUse" color-interpolation-filters="sRGB">
<feFlood flood-opacity="0" result="BackgroundImageFix"/>
<feBlend mode="normal" in="SourceGraphic" in2="BackgroundImageFix" result="shape"/>
<feColorMatrix in="SourceAlpha" type="matrix" values="0 0 0 0 0 0 0 0 0 0 0 0 0 0 0 0 0 0 127 0" result="hardAlpha"/>
<feOffset dy="4"/>
<feGaussianBlur stdDeviation="2"/>
<feComposite in2="hardAlpha" operator="arithmetic" k2="-1" k3="1"/>
<feColorMatrix type="matrix" values="0 0 0 0 0 0 0 0 0 0 0 0 0 0 0 0 0 0 0.25 0"/>
<feBlend mode="normal" in2="shape" result="effect1_innerShadow"/>
</filter>
<filter id="filter10_i" x="327.77" y="19.0469" width="52.4657" height="31.3883" filterUnits="userSpaceOnUse" color-interpolation-filters="sRGB">
<feFlood flood-opacity="0" result="BackgroundImageFix"/>
<feBlend mode="normal" in="SourceGraphic" in2="BackgroundImageFix" result="shape"/>
<feColorMatrix in="SourceAlpha" type="matrix" values="0 0 0 0 0 0 0 0 0 0 0 0 0 0 0 0 0 0 127 0" result="hardAlpha"/>
<feOffset dy="4"/>
<feGaussianBlur stdDeviation="2"/>
<feComposite in2="hardAlpha" operator="arithmetic" k2="-1" k3="1"/>
<feColorMatrix type="matrix" values="0 0 0 0 0 0 0 0 0 0 0 0 0 0 0 0 0 0 0.25 0"/>
<feBlend mode="normal" in2="shape" result="effect1_innerShadow"/>
</filter>
<filter id="filter11_dii" x="532.773" y="4.47266" width="75.9505" height="41.1195" filterUnits="userSpaceOnUse" color-interpolation-filters="sRGB">
<feFlood flood-opacity="0" result="BackgroundImageFix"/>
<feColorMatrix in="SourceAlpha" type="matrix" values="0 0 0 0 0 0 0 0 0 0 0 0 0 0 0 0 0 0 127 0"/>
<feOffset dy="4"/>
<feGaussianBlur stdDeviation="2"/>
<feColorMatrix type="matrix" values="0 0 0 0 0 0 0 0 0 0 0 0 0 0 0 0 0 0 0.25 0"/>
<feBlend mode="normal" in2="BackgroundImageFix" result="effect1_dropShadow"/>
<feBlend mode="normal" in="SourceGraphic" in2="effect1_dropShadow" result="shape"/>
<feColorMatrix in="SourceAlpha" type="matrix" values="0 0 0 0 0 0 0 0 0 0 0 0 0 0 0 0 0 0 127 0" result="hardAlpha"/>
<feOffset dy="4"/>
<feGaussianBlur stdDeviation="2"/>
<feComposite in2="hardAlpha" operator="arithmetic" k2="-1" k3="1"/>
<feColorMatrix type="matrix" values="0 0 0 0 0.498039 0 0 0 0 0.494118 0 0 0 0 0.964706 0 0 0 0.15 0"/>
<feBlend mode="normal" in2="shape" result="effect2_innerShadow"/>
<feColorMatrix in="SourceAlpha" type="matrix" values="0 0 0 0 0 0 0 0 0 0 0 0 0 0 0 0 0 0 127 0" result="hardAlpha"/>
<feOffset dy="-4"/>
<feGaussianBlur stdDeviation="2"/>
<feComposite in2="hardAlpha" operator="arithmetic" k2="-1" k3="1"/>
<feColorMatrix type="matrix" values="0 0 0 0 0.498457 0 0 0 0 0.495417 0 0 0 0 0.966667 0 0 0 0.15 0"/>
<feBlend mode="normal" in2="effect2_innerShadow" result="effect3_innerShadow"/>
</filter>
<filter id="filter12_dii" x="602.98" y="1.86719" width="69.293" height="40.1907" filterUnits="userSpaceOnUse" color-interpolation-filters="sRGB">
<feFlood flood-opacity="0" result="BackgroundImageFix"/>
<feColorMatrix in="SourceAlpha" type="matrix" values="0 0 0 0 0 0 0 0 0 0 0 0 0 0 0 0 0 0 127 0"/>
<feOffset dy="4"/>
<feGaussianBlur stdDeviation="2"/>
<feColorMatrix type="matrix" values="0 0 0 0 0 0 0 0 0 0 0 0 0 0 0 0 0 0 0.25 0"/>
<feBlend mode="normal" in2="BackgroundImageFix" result="effect1_dropShadow"/>
<feBlend mode="normal" in="SourceGraphic" in2="effect1_dropShadow" result="shape"/>
<feColorMatrix in="SourceAlpha" type="matrix" values="0 0 0 0 0 0 0 0 0 0 0 0 0 0 0 0 0 0 127 0" result="hardAlpha"/>
<feOffset dy="4"/>
<feGaussianBlur stdDeviation="2"/>
<feComposite in2="hardAlpha" operator="arithmetic" k2="-1" k3="1"/>
<feColorMatrix type="matrix" values="0 0 0 0 0.498039 0 0 0 0 0.494118 0 0 0 0 0.964706 0 0 0 0.15 0"/>
<feBlend mode="normal" in2="shape" result="effect2_innerShadow"/>
<feColorMatrix in="SourceAlpha" type="matrix" values="0 0 0 0 0 0 0 0 0 0 0 0 0 0 0 0 0 0 127 0" result="hardAlpha"/>
<feOffset dy="-4"/>
<feGaussianBlur stdDeviation="2"/>
<feComposite in2="hardAlpha" operator="arithmetic" k2="-1" k3="1"/>
<feColorMatrix type="matrix" values="0 0 0 0 0.498457 0 0 0 0 0.495417 0 0 0 0 0.966667 0 0 0 0.15 0"/>
<feBlend mode="normal" in2="effect2_innerShadow" result="effect3_innerShadow"/>
</filter>
<filter id="filter13_d" x="151.973" y="44.9609" width="66.1276" height="23.039" filterUnits="userSpaceOnUse" color-interpolation-filters="sRGB">
<feFlood flood-opacity="0" result="BackgroundImageFix"/>
<feColorMatrix in="SourceAlpha" type="matrix" values="0 0 0 0 0 0 0 0 0 0 0 0 0 0 0 0 0 0 127 0"/>
<feOffset dx="-2" dy="-2"/>
<feGaussianBlur stdDeviation="2"/>
<feColorMatrix type="matrix" values="0 0 0 0 0 0 0 0 0 0 0 0 0 0 0 0 0 0 0.25 0"/>
<feBlend mode="normal" in2="BackgroundImageFix" result="effect1_dropShadow"/>
<feBlend mode="normal" in="SourceGraphic" in2="effect1_dropShadow" result="shape"/>
</filter>
<filter id="filter14_d" x="0.550781" y="52.3047" width="34.0657" height="13.87" filterUnits="userSpaceOnUse" color-interpolation-filters="sRGB">
<feFlood flood-opacity="0" result="BackgroundImageFix"/>
<feColorMatrix in="SourceAlpha" type="matrix" values="0 0 0 0 0 0 0 0 0 0 0 0 0 0 0 0 0 0 127 0"/>
<feOffset dx="-2" dy="-2"/>
<feGaussianBlur stdDeviation="2"/>
<feColorMatrix type="matrix" values="0 0 0 0 0 0 0 0 0 0 0 0 0 0 0 0 0 0 0.25 0"/>
<feBlend mode="normal" in2="BackgroundImageFix" result="effect1_dropShadow"/>
<feBlend mode="normal" in="SourceGraphic" in2="effect1_dropShadow" result="shape"/>
</filter>
<filter id="filter15_d" x="228.34" y="42.8633" width="40.9833" height="23.7449" filterUnits="userSpaceOnUse" color-interpolation-filters="sRGB">
<feFlood flood-opacity="0" result="BackgroundImageFix"/>
<feColorMatrix in="SourceAlpha" type="matrix" values="0 0 0 0 0 0 0 0 0 0 0 0 0 0 0 0 0 0 127 0"/>
<feOffset dx="-2" dy="-2"/>
<feGaussianBlur stdDeviation="2"/>
<feColorMatrix type="matrix" values="0 0 0 0 0 0 0 0 0 0 0 0 0 0 0 0 0 0 0.25 0"/>
<feBlend mode="normal" in2="BackgroundImageFix" result="effect1_dropShadow"/>
<feBlend mode="normal" in="SourceGraphic" in2="effect1_dropShadow" result="shape"/>
</filter>
<filter id="filter16_d" x="54.3555" y="50.6836" width="30.7517" height="15.9356" filterUnits="userSpaceOnUse" color-interpolation-filters="sRGB">
<feFlood flood-opacity="0" result="BackgroundImageFix"/>
<feColorMatrix in="SourceAlpha" type="matrix" values="0 0 0 0 0 0 0 0 0 0 0 0 0 0 0 0 0 0 127 0"/>
<feOffset dx="-2" dy="-2"/>
<feGaussianBlur stdDeviation="2"/>
<feColorMatrix type="matrix" values="0 0 0 0 0 0 0 0 0 0 0 0 0 0 0 0 0 0 0.25 0"/>
<feBlend mode="normal" in2="BackgroundImageFix" result="effect1_dropShadow"/>
<feBlend mode="normal" in="SourceGraphic" in2="effect1_dropShadow" result="shape"/>
</filter>
<filter id="filter17_i" x="461.453" y="37.2305" width="71.3016" height="32.3616" filterUnits="userSpaceOnUse" color-interpolation-filters="sRGB">
<feFlood flood-opacity="0" result="BackgroundImageFix"/>
<feBlend mode="normal" in="SourceGraphic" in2="BackgroundImageFix" result="shape"/>
<feColorMatrix in="SourceAlpha" type="matrix" values="0 0 0 0 0 0 0 0 0 0 0 0 0 0 0 0 0 0 127 0" result="hardAlpha"/>
<feOffset dy="4"/>
<feGaussianBlur stdDeviation="2"/>
<feComposite in2="hardAlpha" operator="arithmetic" k2="-1" k3="1"/>
<feColorMatrix type="matrix" values="0 0 0 0 0 0 0 0 0 0 0 0 0 0 0 0 0 0 0.25 0"/>
<feBlend mode="normal" in2="shape" result="effect1_innerShadow"/>
</filter>
<filter id="filter18_d" x="272.484" y="40.7461" width="42.0013" height="25.6471" filterUnits="userSpaceOnUse" color-interpolation-filters="sRGB">
<feFlood flood-opacity="0" result="BackgroundImageFix"/>
<feColorMatrix in="SourceAlpha" type="matrix" values="0 0 0 0 0 0 0 0 0 0 0 0 0 0 0 0 0 0 127 0"/>
<feOffset dx="-2" dy="-2"/>
<feGaussianBlur stdDeviation="2"/>
<feColorMatrix type="matrix" values="0 0 0 0 0 0 0 0 0 0 0 0 0 0 0 0 0 0 0.25 0"/>
<feBlend mode="normal" in2="BackgroundImageFix" result="effect1_dropShadow"/>
<feBlend mode="normal" in="SourceGraphic" in2="effect1_dropShadow" result="shape"/>
</filter>
<filter id="filter19_d" x="322.469" y="38.9375" width="64.3444" height="27.3635" filterUnits="userSpaceOnUse" color-interpolation-filters="sRGB">
<feFlood flood-opacity="0" result="BackgroundImageFix"/>
<feColorMatrix in="SourceAlpha" type="matrix" values="0 0 0 0 0 0 0 0 0 0 0 0 0 0 0 0 0 0 127 0"/>
<feOffset dx="-2" dy="-2"/>
<feGaussianBlur stdDeviation="2"/>
<feColorMatrix type="matrix" values="0 0 0 0 0 0 0 0 0 0 0 0 0 0 0 0 0 0 0.25 0"/>
<feBlend mode="normal" in2="BackgroundImageFix" result="effect1_dropShadow"/>
<feBlend mode="normal" in="SourceGraphic" in2="effect1_dropShadow" result="shape"/>
</filter>
<filter id="filter20_d" x="119.668" y="47.7656" width="33.9022" height="18.8929" filterUnits="userSpaceOnUse" color-interpolation-filters="sRGB">
<feFlood flood-opacity="0" result="BackgroundImageFix"/>
<feColorMatrix in="SourceAlpha" type="matrix" values="0 0 0 0 0 0 0 0 0 0 0 0 0 0 0 0 0 0 127 0"/>
<feOffset dx="-2" dy="-2"/>
<feGaussianBlur stdDeviation="2"/>
<feColorMatrix type="matrix" values="0 0 0 0 0 0 0 0 0 0 0 0 0 0 0 0 0 0 0.25 0"/>
<feBlend mode="normal" in2="BackgroundImageFix" result="effect1_dropShadow"/>
<feBlend mode="normal" in="SourceGraphic" in2="effect1_dropShadow" result="shape"/>
</filter>
<filter id="filter21_d" x="80.4727" y="49.3281" width="30.7889" height="17.117" filterUnits="userSpaceOnUse" color-interpolation-filters="sRGB">
<feFlood flood-opacity="0" result="BackgroundImageFix"/>
<feColorMatrix in="SourceAlpha" type="matrix" values="0 0 0 0 0 0 0 0 0 0 0 0 0 0 0 0 0 0 127 0"/>
<feOffset dx="-2" dy="-2"/>
<feGaussianBlur stdDeviation="2"/>
<feColorMatrix type="matrix" values="0 0 0 0 0 0 0 0 0 0 0 0 0 0 0 0 0 0 0.25 0"/>
<feBlend mode="normal" in2="BackgroundImageFix" result="effect1_dropShadow"/>
<feBlend mode="normal" in="SourceGraphic" in2="effect1_dropShadow" result="shape"/>
</filter>
<filter id="filter22_d" x="383.961" y="35.0664" width="69.3598" height="31.3759" filterUnits="userSpaceOnUse" color-interpolation-filters="sRGB">
<feFlood flood-opacity="0" result="BackgroundImageFix"/>
<feColorMatrix in="SourceAlpha" type="matrix" values="0 0 0 0 0 0 0 0 0 0 0 0 0 0 0 0 0 0 127 0"/>
<feOffset dx="-2" dy="-2"/>
<feGaussianBlur stdDeviation="2"/>
<feColorMatrix type="matrix" values="0 0 0 0 0 0 0 0 0 0 0 0 0 0 0 0 0 0 0.25 0"/>
<feBlend mode="normal" in2="BackgroundImageFix" result="effect1_dropShadow"/>
<feBlend mode="normal" in="SourceGraphic" in2="effect1_dropShadow" result="shape"/>
</filter>
<filter id="filter23_i" x="539.527" y="34.5156" width="63.1357" height="35.2966" filterUnits="userSpaceOnUse" color-interpolation-filters="sRGB">
<feFlood flood-opacity="0" result="BackgroundImageFix"/>
<feBlend mode="normal" in="SourceGraphic" in2="BackgroundImageFix" result="shape"/>
<feColorMatrix in="SourceAlpha" type="matrix" values="0 0 0 0 0 0 0 0 0 0 0 0 0 0 0 0 0 0 127 0" result="hardAlpha"/>
<feOffset dy="4"/>
<feGaussianBlur stdDeviation="2"/>
<feComposite in2="hardAlpha" operator="arithmetic" k2="-1" k3="1"/>
<feColorMatrix type="matrix" values="0 0 0 0 0 0 0 0 0 0 0 0 0 0 0 0 0 0 0.25 0"/>
<feBlend mode="normal" in2="shape" result="effect1_innerShadow"/>
</filter>
<filter id="filter24_i" x="619.559" y="32.9375" width="27.8266" height="35.7202" filterUnits="userSpaceOnUse" color-interpolation-filters="sRGB">
<feFlood flood-opacity="0" result="BackgroundImageFix"/>
<feBlend mode="normal" in="SourceGraphic" in2="BackgroundImageFix" result="shape"/>
<feColorMatrix in="SourceAlpha" type="matrix" values="0 0 0 0 0 0 0 0 0 0 0 0 0 0 0 0 0 0 127 0" result="hardAlpha"/>
<feOffset dy="4"/>
<feGaussianBlur stdDeviation="2"/>
<feComposite in2="hardAlpha" operator="arithmetic" k2="-1" k3="1"/>
<feColorMatrix type="matrix" values="0 0 0 0 0 0 0 0 0 0 0 0 0 0 0 0 0 0 0.25 0"/>
<feBlend mode="normal" in2="shape" result="effect1_innerShadow"/>
</filter>
</defs>
</svg>
