<svg width="26" height="26" viewBox="0 0 26 26" fill="none" xmlns="http://www.w3.org/2000/svg">
<path d="M10.3242 2.79472C11.3405 0.308015 14.8619 0.308019 15.8783 2.79472L17.1315 5.861C17.5621 6.91469 18.552 7.63389 19.6872 7.71785L22.9907 7.96218C25.6697 8.16033 26.7579 11.5094 24.7069 13.2444L22.178 15.3838C21.309 16.119 20.9309 17.2826 21.2018 18.3882L21.9903 21.6055C22.6297 24.2147 19.7808 26.2845 17.4969 24.8701L14.6808 23.126C13.713 22.5267 12.4895 22.5267 11.5217 23.126L8.70553 24.8701C6.42166 26.2845 3.5728 24.2147 4.21222 21.6055L5.00068 18.3882C5.27162 17.2826 4.89352 16.119 4.02447 15.3838L1.49552 13.2444C-0.555408 11.5094 0.532767 8.16033 3.21182 7.96218L6.51529 7.71785C7.65048 7.63389 8.64038 6.91469 9.07102 5.861L10.3242 2.79472Z" fill="#FBBE2E"/>
</svg>
