<svg width="293" height="58" viewBox="0 0 293 58" fill="none" xmlns="http://www.w3.org/2000/svg">
<path d="M26.223 6.79472C27.2393 4.30802 30.7607 4.30802 31.777 6.79472L35.8825 16.8398C36.3131 17.8935 37.303 18.6127 38.4382 18.6967L49.2603 19.4971C51.9394 19.6952 53.0276 23.0443 50.9766 24.7793L42.6918 31.7879C41.8228 32.5231 41.4447 33.6868 41.7156 34.7924L44.2986 45.3322C44.938 47.9413 42.0891 50.0111 39.8053 48.5967L30.5795 42.8832C29.6118 42.2839 28.3882 42.2839 27.4205 42.8832L18.1947 48.5967C15.9109 50.0111 13.062 47.9413 13.7014 45.3322L16.2844 34.7924C16.5553 33.6868 16.1772 32.5231 15.3082 31.7879L7.02338 24.7793C4.97245 23.0443 6.06062 19.6952 8.73967 19.4971L19.5618 18.6967C20.697 18.6127 21.6869 17.8935 22.1175 16.8398L26.223 6.79472Z" fill="#FBBE2E"/>
<path d="M143.223 6.79472C144.239 4.30802 147.761 4.30802 148.777 6.79472L152.882 16.8398C153.313 17.8935 154.303 18.6127 155.438 18.6967L166.26 19.4971C168.939 19.6952 170.028 23.0443 167.977 24.7793L159.692 31.7879C158.823 32.5231 158.445 33.6868 158.716 34.7924L161.299 45.3322C161.938 47.9413 159.089 50.0111 156.805 48.5967L147.58 42.8832C146.612 42.2839 145.388 42.2839 144.42 42.8832L135.195 48.5967C132.911 50.0111 130.062 47.9413 130.701 45.3322L133.284 34.7924C133.555 33.6868 133.177 32.5231 132.308 31.7879L124.023 24.7793C121.972 23.0443 123.061 19.6952 125.74 19.4971L136.562 18.6967C137.697 18.6127 138.687 17.8935 139.118 16.8398L143.223 6.79472Z" fill="#FBBE2E"/>
<path d="M84.7299 6.66299C85.7545 4.19856 89.2455 4.19856 90.2701 6.66299L94.5067 16.8532C94.9417 17.8995 95.9291 18.6115 97.0593 18.6936L108.133 19.4988C110.826 19.6946 111.91 23.0708 109.834 24.7975L101.433 31.7834C100.548 32.5198 100.162 33.6982 100.441 34.8157L103.073 45.376C103.722 47.9775 100.892 50.0584 98.6023 48.6642L89.06 42.8548C88.1018 42.2714 86.8982 42.2714 85.94 42.8548L76.3977 48.6642C74.1076 50.0584 71.2782 47.9775 71.9267 45.376L74.5593 34.8157C74.8379 33.6982 74.4522 32.5198 73.5667 31.7834L65.1664 24.7975C63.0901 23.0708 64.1737 19.6946 66.867 19.4988L77.9407 18.6936C79.0709 18.6115 80.0583 17.8995 80.4933 16.8532L84.7299 6.66299Z" fill="#FBBE2E"/>
<path d="M201.73 6.66299C202.754 4.19856 206.246 4.19856 207.27 6.66299L211.507 16.8532C211.942 17.8995 212.929 18.6115 214.059 18.6936L225.133 19.4988C227.826 19.6946 228.91 23.0708 226.834 24.7975L218.433 31.7834C217.548 32.5198 217.162 33.6982 217.441 34.8157L220.073 45.376C220.722 47.9775 217.892 50.0584 215.602 48.6642L206.06 42.8548C205.102 42.2714 203.898 42.2714 202.94 42.8548L193.398 48.6642C191.108 50.0584 188.278 47.9775 188.927 45.376L191.559 34.8157C191.838 33.6982 191.452 32.5198 190.567 31.7834L182.166 24.7975C180.09 23.0708 181.174 19.6946 183.867 19.4988L194.941 18.6936C196.071 18.6115 197.058 17.8995 197.493 16.8532L201.73 6.66299Z" fill="#FBBE2E"/>
<path d="M260.73 6.66299C261.754 4.19856 265.246 4.19856 266.27 6.66299L270.507 16.8532C270.942 17.8995 271.929 18.6115 273.059 18.6936L284.133 19.4988C286.826 19.6946 287.91 23.0708 285.834 24.7975L277.433 31.7834C276.548 32.5198 276.162 33.6982 276.441 34.8157L279.073 45.376C279.722 47.9775 276.892 50.0584 274.602 48.6642L265.06 42.8548C264.102 42.2714 262.898 42.2714 261.94 42.8548L252.398 48.6642C250.108 50.0584 247.278 47.9775 247.927 45.376L250.559 34.8157C250.838 33.6982 250.452 32.5198 249.567 31.7834L241.166 24.7975C239.09 23.0708 240.174 19.6946 242.867 19.4988L253.941 18.6936C255.071 18.6115 256.058 17.8995 256.493 16.8532L260.73 6.66299Z" fill="#D9D7D7"/>
<mask id="mask0" mask-type="alpha" maskUnits="userSpaceOnUse" x="239" y="4" width="48" height="46">
<path d="M260.223 6.79472C261.239 4.30802 264.761 4.30802 265.777 6.79472L269.882 16.8398C270.313 17.8935 271.303 18.6127 272.438 18.6967L283.26 19.4971C285.939 19.6952 287.028 23.0443 284.977 24.7793L276.692 31.7879C275.823 32.5231 275.445 33.6868 275.716 34.7924L278.299 45.3322C278.938 47.9413 276.089 50.0111 273.805 48.5967L264.58 42.8832C263.612 42.2839 262.388 42.2839 261.42 42.8832L252.195 48.5967C249.911 50.0111 247.062 47.9413 247.701 45.3322L250.284 34.7924C250.555 33.6868 250.177 32.5231 249.308 31.7879L241.023 24.7793C238.972 23.0443 240.061 19.6952 242.74 19.4971L253.562 18.6967C254.697 18.6127 255.687 17.8935 256.118 16.8398L260.223 6.79472Z" fill="#5352ED"/>
</mask>
<g mask="url(#mask0)">
<path d="M263 41.1102V3.37288L225 -8L238.534 33.8729L248.425 53L263 41.1102Z" fill="#FBBE2E" stroke="#FBBE2E"/>
</g>
</svg>
