<svg width="37" height="37" viewBox="0 0 37 37" fill="none" xmlns="http://www.w3.org/2000/svg">
<mask id="mask0" mask-type="alpha" maskUnits="userSpaceOnUse" x="6" y="4" width="26" height="26">
<path d="M16.127 6.79472C17.1433 4.30802 20.6647 4.30802 21.681 6.79472L22.9342 9.861C23.3648 10.9147 24.3547 11.6339 25.4899 11.7179L28.7934 11.9622C31.4725 12.1603 32.5606 15.5094 30.5097 17.2444L27.9807 19.3838C27.1117 20.119 26.7336 21.2826 27.0045 22.3882L27.793 25.6055C28.4324 28.2147 25.5835 30.2845 23.2997 28.8701L20.4835 27.126C19.5158 26.5267 18.2922 26.5267 17.3244 27.126L14.5083 28.8701C12.2244 30.2845 9.37553 28.2147 10.015 25.6055L10.8034 22.3882C11.0744 21.2826 10.6963 20.119 9.82721 19.3838L7.29826 17.2444C5.24733 15.5094 6.3355 12.1603 9.01455 11.9622L12.318 11.7179C13.4532 11.6339 14.4431 10.9147 14.8738 9.861L16.127 6.79472Z" fill="#C4C4C4"/>
</mask>
<g mask="url(#mask0)">
<path d="M18.9045 25.6515V2.10425L-4.80664 -4.99219L3.63844 21.1356L9.80984 33.0705L18.9045 25.6515Z" fill="#FBBE2E" stroke="#FBBE2E"/>
</g>
</svg>
