<svg width="34" height="34" viewBox="0 0 34 34" fill="none" xmlns="http://www.w3.org/2000/svg">
<path d="M22.8649 3.02646C22.7969 3.45146 22.7629 3.87645 22.7629 4.30145C22.7629 8.12639 25.8569 11.2186 29.6649 11.2186C30.0899 11.2186 30.4978 11.1693 30.9228 11.1013V24.8184C30.9228 30.5831 27.5229 34 21.7429 34H9.18165C3.39998 34 0 30.5831 0 24.8184V12.2403C0 6.46041 3.39998 3.02646 9.18165 3.02646H22.8649ZM23.2066 13.3623C22.7459 13.3113 22.2886 13.5153 22.0149 13.8893L17.9026 19.2102L13.1919 15.5043C12.9029 15.2833 12.5629 15.1966 12.2229 15.2323C11.8846 15.2833 11.5786 15.4686 11.3729 15.7406L6.34267 22.2872L6.23897 22.4402C5.94997 22.9825 6.08597 23.6795 6.59597 24.0552C6.83397 24.2081 7.08897 24.3101 7.37796 24.3101C7.77066 24.3271 8.14296 24.1215 8.38096 23.8002L12.6479 18.3075L17.4929 21.9472L17.6459 22.0475C18.1899 22.3365 18.8699 22.2022 19.2609 21.6905L24.1739 15.3513L24.1059 15.3853C24.3779 15.0113 24.4289 14.5353 24.2419 14.1103C24.0566 13.6853 23.6469 13.3963 23.2066 13.3623ZM29.903 0C32.164 0 34 1.83597 34 4.09694C34 6.35791 32.164 8.19388 29.903 8.19388C27.642 8.19388 25.806 6.35791 25.806 4.09694C25.806 1.83597 27.642 0 29.903 0Z" fill="#5352ED"/>
</svg>
